<?xml version="1.0" encoding="UTF-8"?>
<svg width="20px" height="17px" viewBox="0 0 20 17" version="1.1" xmlns="http://www.w3.org/2000/svg" xmlns:xlink="http://www.w3.org/1999/xlink">
    <!-- Generator: Sketch 46.2 (44496) - http://www.bohemiancoding.com/sketch -->
    <title>right_navigation_icons_04</title>
    <desc>Created with Sketch.</desc>
    <defs></defs>
    <g id="Page-1" stroke="none" stroke-width="1" fill="none" fill-rule="evenodd" stroke-linejoin="round">
        <g id="首页" transform="translate(-1413.000000, -406.000000)" stroke="#FFFFFF" stroke-width="1.3">
            <g id="Group-30" transform="translate(1411.000000, 189.000000)">
                <path d="M15.8118313,218 C14.2259283,218 12.9685337,218.718686 12.0056639,219.899384 C11.0314663,218.718686 9.78539962,218 8.19949654,218 C5.33354311,218 3,220.289528 3,223.112936 C3,224.796715 3.83826306,225.977413 4.50660793,226.921971 C6.44367527,229.683778 11.1220894,232.650924 11.3259912,232.794661 C11.529893,232.938398 11.7564506,233 11.9943361,233 C12.2322215,233 12.4587791,232.928131 12.6626809,232.794661 C12.8665828,232.650924 17.5449969,229.673511 19.4933921,226.921971 C20.1617369,225.977413 21,224.796715 21,223.112936 C21,220.299795 18.6664569,218 15.8118313,218 Z" id="right_navigation_icons_04"></path>
            </g>
        </g>
    </g>
</svg>