<?xml version="1.0" encoding="UTF-8"?>
<svg width="15px" height="15px" viewBox="0 0 15 15" version="1.1" xmlns="http://www.w3.org/2000/svg" xmlns:xlink="http://www.w3.org/1999/xlink">
    <!-- Generator: Sketch 46.2 (44496) - http://www.bohemiancoding.com/sketch -->
    <title>right_navigation_icons_07</title>
    <desc>Created with Sketch.</desc>
    <defs>
        <rect id="path-1" x="0" y="0" width="6" height="6"></rect>
        <rect id="path-2" x="0" y="9" width="6" height="6"></rect>
        <rect id="path-3" x="9" y="0" width="6" height="6"></rect>
    </defs>
    <g id="Page-1" stroke="none" stroke-width="1" fill="none" fill-rule="evenodd">
        <g id="首页" transform="translate(-1416.000000, -822.000000)">
            <g id="right_navigation_icons_07" transform="translate(1416.000000, 822.000000)">
                <g id="Rectangle-46">
                    <use fill-opacity="0" fill="#D8D8D8" fill-rule="evenodd" xlink:href="#path-1"></use>
                    <rect stroke="#FFFFFF" stroke-width="1" x="0.5" y="0.5" width="5" height="5"></rect>
                </g>
                <g id="Rectangle-46-Copy-2">
                    <use fill-opacity="0" fill="#D8D8D8" fill-rule="evenodd" xlink:href="#path-2"></use>
                    <rect stroke="#FFFFFF" stroke-width="1" x="0.5" y="9.5" width="5" height="5"></rect>
                </g>
                <path d="M0.5,7.5 L1.5,7.5" id="Line" stroke="#FFFFFF" stroke-linecap="square"></path>
                <path d="M4.5,7.5 L7.5,7.5" id="Line" stroke="#FFFFFF" stroke-linecap="square"></path>
                <path d="M7.5,4.5 L7.5,7.5" id="Line" stroke="#FFFFFF" stroke-linecap="square"></path>
                <path d="M7.5,0.5 L7.5,1.5" id="Line" stroke="#FFFFFF" stroke-linecap="square"></path>
                <path d="M7.5,10.5 L11.5,10.5" id="Line" stroke="#FFFFFF" stroke-linecap="square"></path>
                <path d="M7.5,10.5 L7.5,14.5" id="Line" stroke="#FFFFFF" stroke-linecap="square"></path>
                <path d="M9.5,14.5 L14.5,14.5" id="Line" stroke="#FFFFFF" stroke-linecap="square"></path>
                <path d="M14.5,14.5 L14.5,9.5" id="Line" stroke="#FFFFFF" stroke-linecap="square"></path>
                <path d="M11.5,7.5 L14.5,7.5" id="Line" stroke="#FFFFFF" stroke-linecap="square"></path>
                <g id="Rectangle-46-Copy">
                    <use fill-opacity="0" fill="#D8D8D8" fill-rule="evenodd" xlink:href="#path-3"></use>
                    <rect stroke="#FFFFFF" stroke-width="1" x="9.5" y="0.5" width="5" height="5"></rect>
                </g>
            </g>
        </g>
    </g>
</svg>