<?xml version="1.0" encoding="UTF-8"?>
<svg width="19px" height="19px" viewBox="0 0 19 19" version="1.1" xmlns="http://www.w3.org/2000/svg" xmlns:xlink="http://www.w3.org/1999/xlink">
    <!-- Generator: Sketch 46.2 (44496) - http://www.bohemiancoding.com/sketch -->
    <title>the_left_navigation_icons_03</title>
    <desc>Created with Sketch.</desc>
    <defs></defs>
    <g id="Page-1" stroke="none" stroke-width="1" fill="none" fill-rule="evenodd">
        <g id="首页" transform="translate(-68.000000, -776.000000)" fill="#FFFFFF">
            <g id="Group-16" transform="translate(50.000000, 707.000000)">
                <g id="the_left_navigation_icons_03" transform="translate(18.000000, 69.000000)">
                    <path d="M9.4888563,0.0490367647 C4.26664223,0.0490367647 0.0180806452,3.62821765 0.0180806452,8.02758382 C0.0180806452,10.5419265 1.3790044,12.8568529 3.75180352,14.3787529 C3.85577419,14.4455882 3.97573607,14.4808779 4.09870674,14.4808779 C4.31979765,14.48085 4.52311437,14.3693088 4.64274194,14.1823265 C4.8338563,13.8819029 4.74598827,13.4813662 4.44686364,13.2894941 C2.4517522,12.0097603 1.30748974,10.0918779 1.30748974,8.02758382 C1.30748974,4.34130441 4.97760997,1.34232206 9.48882845,1.34232206 C14.0000191,1.34232206 17.6701672,4.34130441 17.6701672,8.02758382 C17.6701672,11.7137515 14.0000469,14.7126221 9.48882845,14.7126221 C9.35485337,14.7126221 9.22196481,14.7099676 9.09267009,14.7049941 C9.0761217,14.7036809 9.05954545,14.7027868 9.04294135,14.7027868 C8.85491935,14.7027868 8.68018622,14.7844029 8.55924927,14.9222368 C8.55702053,14.9246956 8.55481965,14.9272382 8.55264663,14.929725 C8.54988856,14.9329662 8.54704692,14.9360956 8.54434457,14.9393926 C8.50096774,14.9905529 8.46502933,15.048 8.4388695,15.1098338 C7.89182551,16.1198515 6.90006452,16.7688691 6.24838123,17.1870647 C6.44509531,16.3625765 6.52872874,16.0024985 6.67067155,15.3893574 L6.67997654,15.3412706 L6.68086804,15.3361294 C6.70580205,15.1826206 6.67418182,15.0255353 6.59188563,14.8937647 C6.40514516,14.5947941 6.01068622,14.5039015 5.71253666,14.6912191 C5.58847947,14.769175 5.49425953,14.8885956 5.447261,15.0274912 L5.439739,15.0513529 L5.43622874,15.0640382 C5.20992815,16.0090926 5.04132405,16.7203074 4.83485924,17.6007618 L4.82761584,17.6316368 L4.82853519,17.6408294 C4.75902639,17.9340441 4.71166569,18.1339632 4.70968768,18.1426809 C4.67388856,18.3004926 4.70305718,18.5113088 4.79073021,18.6581676 C4.90631818,18.8525824 5.1183827,18.9733441 5.34418182,18.9733441 C5.42018182,18.9733441 5.49509531,18.9599882 5.56702786,18.9335838 C5.67815836,18.8925941 8.16189296,17.95785 9.40681085,16.0054324 C9.43422434,16.0056559 9.46163783,16.0058794 9.48880059,16.0058794 C14.7110147,16.0058794 18.9596041,12.4268382 18.9596041,8.02761176 C18.959632,3.62821765 14.7110425,0.0490367647 9.4888563,0.0490367647" id="Fill-2"></path>
                    <path d="M5.80124047,10.868 C6.07749267,10.868 6.34647361,10.7234603 6.49398827,10.4654235 L8.00033724,7.82889412 L9.81625806,10.1230044 C9.97148974,10.3190956 10.185978,10.4388794 10.45911,10.4253279 C10.7083666,10.4196 10.9409912,10.2971897 11.0874194,10.0940853 L13.7424604,6.40970588 C14.0005205,6.05166765 13.9200352,5.55168824 13.5632977,5.29284118 C13.2070894,5.03455294 12.7080748,5.11393382 12.4494853,5.47278235 L10.4113314,8.30149118 L8.51807331,5.91000588 C8.35345308,5.70243088 8.10004545,5.58968824 7.83315396,5.60975 C7.56988416,5.62953235 7.3331085,5.77952059 7.20122287,6.0097 L5.10960704,9.67016176 C4.89096774,10.0534588 5.02288123,10.5422338 5.40505425,10.7617676 C5.53019795,10.8336324 5.66676393,10.868 5.80124047,10.868" id="Fill-3"></path>
                </g>
            </g>
        </g>
    </g>
</svg>