<?xml version="1.0" encoding="UTF-8"?>
<svg width="18px" height="20px" viewBox="0 0 18 20" version="1.1" xmlns="http://www.w3.org/2000/svg" xmlns:xlink="http://www.w3.org/1999/xlink">
    <!-- Generator: Sketch 46.2 (44496) - http://www.bohemiancoding.com/sketch -->
    <title>the_left_navigation_icons_01</title>
    <desc>Created with Sketch.</desc>
    <defs></defs>
    <g id="Page-1" stroke="none" stroke-width="1" fill="none" fill-rule="evenodd">
        <g id="首页" transform="translate(-69.000000, -717.000000)" fill="#999999">
            <g id="Group-16" transform="translate(50.000000, 707.000000)">
                <g id="the_left_navigation_icons_01" transform="translate(19.000000, 10.000000)">
                    <path d="M17.4042243,3.62196429 C17.0891514,3.62196429 16.8350838,3.88971939 16.8350838,4.22015306 L16.8350838,18.4608163 L9.13349189,15.0596684 C8.99151081,14.9969898 8.82836757,14.9969898 8.68638649,15.0609694 L1.1466973,18.4778061 L1.1466973,2.33020408 C1.1466973,1.72545918 1.61622973,1.23306122 2.1941027,1.23306122 L15.3256378,1.23306122 C15.6419757,1.23306122 15.8960432,0.965306122 15.8960432,0.634846939 C15.8960432,0.304413265 15.6419757,0.0366581633 15.3256378,0.0366581633 L2.1941027,0.0366581633 C0.9873,0.0366581633 0.00591081081,1.06586735 0.00591081081,2.33020408 L0.00591081081,19.3881633 C0.00591081081,19.5893112 0.103062162,19.7747704 0.263724324,19.8870918 C0.35837027,19.9537245 0.467951351,19.985051 0.576316216,19.985051 C0.654762162,19.985051 0.730751351,19.9693878 0.80297027,19.9380357 L8.91554595,16.261301 L17.1825568,19.9184439 C17.3569135,19.9942092 17.5624054,19.9772194 17.7205622,19.8675 C17.8787189,19.7525765 17.9733892,19.5670918 17.9733892,19.3646429 L17.9733892,4.22015306 C17.9733892,3.88971939 17.7205622,3.62196429 17.4042243,3.62196429" id="Fill-1"></path>
                    <path d="M13.879727,7.34831633 C13.8012811,7.10015306 13.5833351,6.93428571 13.3354946,6.93428571 L10.4299541,6.93428571 L9.53202162,4.0359949 C9.4572973,3.78913265 9.23811081,3.62196429 8.99027027,3.62196429 C8.74367027,3.62196429 8.52448378,3.78913265 8.44727838,4.03469388 L7.54934595,6.93428571 L4.64380541,6.93428571 C4.39596486,6.93428571 4.17801892,7.10015306 4.10081351,7.34831633 C4.02484865,7.59387755 4.10952162,7.86423469 4.30878649,8.01706633 L6.65888108,9.8077551 L5.76218919,12.7060459 C5.6862,12.9515816 5.76965676,13.2219643 5.96892162,13.3734694 C6.17066757,13.5262755 6.43967027,13.5262755 6.6402,13.3734694 L8.99027027,11.5827806 L11.3391,13.3721684 C11.4412378,13.4505357 11.5582865,13.4870918 11.6766,13.4870918 C11.7961784,13.4870918 11.9119865,13.4505357 12.0128595,13.3721684 C12.2121243,13.2206633 12.2955811,12.9515816 12.2196162,12.7047449 L11.3204189,9.8077551 L13.6717541,8.01706633 C13.8710189,7.86423469 13.9532108,7.59387755 13.879727,7.34831633 Z M10.3141459,9.09331633 C10.1148811,9.24742347 10.0314243,9.51647959 10.1061486,9.76334184 L10.5893757,11.3228571 L9.32404865,10.3589286 C9.22441622,10.2831888 9.10734324,10.2453061 8.99027027,10.2453061 C8.87195676,10.2453061 8.75488378,10.2831888 8.65525135,10.3589286 L7.38868378,11.3241582 L7.87188649,9.76464286 C7.94911622,9.51780612 7.86565946,9.24742347 7.66639459,9.09461735 L6.39982703,8.13068878 L7.96405135,8.13068878 C8.21189189,8.13068878 8.42983784,7.96482143 8.5058027,7.71665816 L8.99027027,6.15714286 L9.4734973,7.71665816 C9.54946216,7.96352041 9.76988919,8.13068878 10.0177297,8.13068878 L11.5807135,8.13068878 L10.3141459,9.09331633 L10.3141459,9.09331633 Z" id="Fill-2"></path>
                </g>
            </g>
        </g>
    </g>
</svg>