<?xml version="1.0" encoding="UTF-8"?>
<svg width="18px" height="18px" viewBox="0 0 18 18" version="1.1" xmlns="http://www.w3.org/2000/svg" xmlns:xlink="http://www.w3.org/1999/xlink">
    <!-- Generator: Sketch 46.2 (44496) - http://www.bohemiancoding.com/sketch -->
    <title>the_left_navigation_icons_05</title>
    <desc>Created with Sketch.</desc>
    <defs></defs>
    <g id="Page-1" stroke="none" stroke-width="1" fill="none" fill-rule="evenodd">
        <g id="首页" transform="translate(-69.000000, -834.000000)" fill="#FFFFFF">
            <g id="Group-16" transform="translate(50.000000, 707.000000)">
                <path d="M34.5140462,130.515039 L32.6879709,130.515039 C32.4214757,129.756894 32.0268583,129.004756 31.4439236,128.390297 C30.5687031,127.467781 29.4191544,127 28.0272137,127 C26.6356508,127 25.4844902,127.467529 24.6057688,128.389644 C24.020114,129.004228 23.6222475,129.756668 23.3525285,130.515039 L21.5329261,130.515039 C20.147559,130.515039 19,131.644001 19,133.026482 L19,139.336241 C19,139.682402 19.2819847,139.96304 19.6288743,139.96304 C19.9757639,139.96304 20.2577234,139.682427 20.2577234,139.336241 L20.2577234,133.026507 C20.2577234,132.335267 20.8402551,131.770145 21.5329261,131.770145 L23.0097443,131.770145 C22.8635887,132.499211 22.8135941,133.159387 22.7987091,133.615983 C22.5415831,133.806317 22.3749008,134.111435 22.3749008,134.45546 C22.3749008,135.032394 22.8436161,135.500124 23.4217654,135.500124 C23.9999398,135.500124 24.4686551,135.032394 24.4686551,134.45546 C24.4686551,134.116588 24.3068337,133.815541 24.056231,133.624654 C24.0684463,133.293247 24.1016165,132.840571 24.1845295,132.334563 C24.2135188,132.157725 24.2499381,131.967718 24.2954999,131.77012 L31.7412971,131.77012 C31.9020103,132.488705 31.9546998,133.162855 31.9699878,133.61543 C31.7124337,133.805739 31.545424,134.111083 31.545424,134.455435 C31.545424,135.032394 32.0141393,135.500099 32.5922885,135.500099 C33.170463,135.500099 33.6391531,135.032394 33.6391531,134.455435 C33.6391531,134.117593 33.4782888,133.817351 33.2289958,133.626413 C33.216453,133.168988 33.1695815,132.504439 33.0255164,131.77012 L34.5140714,131.77012 C35.2067423,131.77012 35.7423018,132.335242 35.7423018,133.026482 L35.7423018,142.514017 C35.7423018,143.204152 35.2067675,143.744894 34.5140714,143.744894 L21.5329261,143.744894 C20.8402551,143.744894 20.2767138,143.193621 20.2767138,142.506226 C20.2767138,142.160065 19.9954847,141.887395 19.6485699,141.887395 C19.3016803,141.887395 19.0204512,142.163232 19.0204512,142.509368 C19.0204512,143.888003 20.147559,145 21.5329261,145 L34.514021,145 C35.8994133,145 37,143.895393 37,142.514017 L37,133.026507 C37,131.644026 35.8994133,130.515039 34.5140462,130.515039 Z M24.7036423,130.515039 C24.9043008,130.058644 25.168227,129.618561 25.5160989,129.2535 C26.1573144,128.580657 26.9787121,128.253598 28.0272137,128.253598 C29.0735745,128.253598 29.8918994,128.579325 30.5290096,129.249378 C30.8758488,129.614137 31.1400773,130.052336 31.3412395,130.515039 L24.7036423,130.515039 L24.7036423,130.515039 Z" id="the_left_navigation_icons_05"></path>
            </g>
        </g>
    </g>
</svg>