<?xml version="1.0" encoding="UTF-8"?>
<svg width="39px" height="11px" viewBox="0 0 39 11" version="1.1" xmlns="http://www.w3.org/2000/svg" xmlns:xlink="http://www.w3.org/1999/xlink">
    <!-- Generator: Sketch 46.2 (44496) - http://www.bohemiancoding.com/sketch -->
    <title>home_main_inner_zs_xp_r</title>
    <desc>Created with Sketch.</desc>
    <defs>
        <linearGradient x1="6.15993176%" y1="57.7079948%" x2="94.0585515%" y2="57.7079952%" id="linearGradient-1">
            <stop stop-color="#C900FF" offset="0%"></stop>
            <stop stop-color="#A535F4" offset="16.0481917%"></stop>
            <stop stop-color="#8650E0" offset="27.2017388%"></stop>
            <stop stop-color="#6172D0" offset="40.5934863%"></stop>
            <stop stop-color="#4482C2" offset="55.0668793%"></stop>
            <stop stop-color="#00A9A5" offset="71.1990602%"></stop>
            <stop stop-color="#00B59E" offset="83.6799782%"></stop>
            <stop stop-color="#00D186" offset="100%"></stop>
        </linearGradient>
    </defs>
    <g id="Page-1" stroke="none" stroke-width="1" fill="none" fill-rule="evenodd" stroke-linecap="round" opacity="0.514379529" stroke-linejoin="round">
        <g id="首页" transform="translate(-835.000000, -1880.000000)" stroke="url(#linearGradient-1)" stroke-width="2">
            <path d="M836,1890 L840.242362,1881.71347 L840.242362,1881.71347 C840.494043,1881.22187 841.096595,1881.02737 841.588199,1881.27905 C841.809573,1881.39239 841.980771,1881.58414 842.068384,1881.8169 L844.227746,1887.55357 L844.227746,1887.55357 C844.422306,1888.07044 844.999043,1888.33174 845.515922,1888.13718 C845.749057,1888.04942 845.941045,1887.87781 846.054303,1887.65594 L849.102205,1881.68522 L849.102205,1881.68522 C849.353307,1881.19332 849.95563,1880.99812 850.44753,1881.24922 C850.66567,1881.36058 850.835359,1881.54811 850.924416,1881.77627 L853.317618,1887.90733 L853.317618,1887.90733 C853.51844,1888.42181 854.098306,1888.67608 854.612785,1888.47526 C854.843032,1888.38538 855.031837,1888.21342 855.142775,1887.99255 L858.26555,1881.77536 L858.26555,1881.77536 C858.513439,1881.28184 859.114476,1881.08271 859.608004,1881.3306 C859.836217,1881.44523 860.011927,1881.64282 860.0991,1881.88287 L862.248511,1887.80162 L862.248511,1887.80162 C862.437029,1888.32073 863.010678,1888.58873 863.529792,1888.40022 C863.771702,1888.31237 863.970427,1888.13463 864.084623,1887.90398 L867.227331,1881.55652 L867.227331,1881.55652 C867.472383,1881.06157 868.072267,1880.859 868.56721,1881.10405 C868.769424,1881.20417 868.931834,1881.36973 869.028045,1881.57384 L873,1890" id="home_main_inner_zs_xp_r" transform="translate(854.500000, 1885.500000) scale(-1, 1) translate(-854.500000, -1885.500000) "></path>
        </g>
    </g>
</svg>