<?xml version="1.0" encoding="UTF-8"?>
<svg width="24px" height="24px" viewBox="0 0 24 24" version="1.1" xmlns="http://www.w3.org/2000/svg" xmlns:xlink="http://www.w3.org/1999/xlink">
    <!-- Generator: Sketch 46.2 (44496) - http://www.bohemiancoding.com/sketch -->
    <title>the_left_navigation_icons_07</title>
    <desc>Created with Sketch.</desc>
    <defs></defs>
    <g id="Page-1" stroke="none" stroke-width="1" fill="none" fill-rule="evenodd">
        <g id="首页" transform="translate(-66.000000, -890.000000)" stroke="#FFFFFF" stroke-width="0.2" fill="#FFFFFF">
            <g id="Group-16" transform="translate(50.000000, 707.000000)">
                <path d="M38.9310951,195.357239 C38.735749,194.304632 38.0730924,193.526726 37.0153394,193.109572 C36.3730123,192.855176 35.7059245,192.781317 35.2447639,192.766304 C35.0221596,192.367628 34.6657886,191.833429 34.173798,191.385442 C34.3867612,190.875039 34.5320488,190.372505 34.6103054,189.87878 C34.8593623,188.29995 34.4079501,186.846062 33.2682613,185.555846 C30.8034472,182.763397 27.2403823,184.419765 25.8542953,185.239005 C25.1979228,184.848333 24.1145766,184.305298 22.8957987,184.091484 C21.1041417,183.778108 19.5632066,184.284214 18.4403293,185.555846 C17.2840707,186.865373 16.8203051,188.343916 17.0622989,189.949174 C17.3791119,192.052588 18.8874177,194.314408 21.5467453,196.669479 C22.6224109,197.617582 23.7636573,198.488685 24.9619983,199.27626 C24.7560712,199.563073 24.5836059,199.909833 24.5272633,200.306816 C24.4683158,200.723111 24.5220265,201.360256 25.116927,202.031698 L25.3280909,202.267643 C25.7900841,202.783284 26.124541,203.154672 26.2125461,203.546311 C26.2741255,203.819185 26.2688887,204.259195 25.680165,205.238668 C25.537912,205.475043 25.6115495,205.781784 25.8455941,205.927836 C25.9578497,205.996243 26.0927442,206.017111 26.2204147,205.985742 C26.3481927,205.954372 26.4580312,205.873288 26.5257873,205.760594 C27.8396064,203.574538 27.0934296,202.743722 26.0620217,201.593461 L25.8542953,201.361088 C25.5789202,201.050425 25.4654293,200.753836 25.5067598,200.452842 C25.5779802,199.940666 26.0884474,199.475061 26.365595,199.27352 C26.9640672,198.895095 28.0710193,198.158523 29.293369,197.171906 C29.5442788,198.007637 29.8552373,198.824084 30.2235321,199.615016 C29.8319269,199.812151 29.343508,200.151848 29.0944511,200.695716 C28.9360581,201.040784 28.8207679,201.605735 29.1614016,202.33887 L29.2801561,202.590553 C29.5345303,203.128352 29.7174961,203.517251 29.6955552,203.849105 C29.6805699,204.080537 29.570624,204.429902 28.8551697,205.082974 C28.6516596,205.269501 28.6351972,205.584676 28.8181361,205.791453 C28.9054161,205.890182 29.0286823,205.949645 29.1602468,205.956574 C29.2917845,205.963503 29.4206098,205.917335 29.5177457,205.828382 C30.283339,205.130485 30.6424224,204.540771 30.6846927,203.915927 C30.7234182,203.321915 30.4690171,202.782451 30.1742256,202.15758 L30.0581029,201.911134 C29.9137552,201.600498 29.8917338,201.341778 29.9921192,201.119987 C30.1900703,200.684301 30.8219238,200.424749 31.0489323,200.360424 C31.0660392,200.355483 31.0827164,200.349628 31.0991787,200.342913 C31.9992638,200.332842 32.8975496,200.257291 33.7865971,200.116718 C35.9294688,199.770817 37.4377746,199.091398 38.2675791,198.097771 C38.90381,197.335684 39.1273542,196.413283 38.9310951,195.356406 L38.9310951,195.357239 Z M18.0408554,189.797804 C17.8437369,188.483871 18.2159257,187.315965 19.1786375,186.22479 C19.8958643,185.413285 20.8022335,185.004108 21.8837804,185.004108 C22.1539187,185.004108 22.434638,185.030455 22.7267978,185.081539 C23.9587885,185.297152 25.0500034,185.906151 25.5911931,186.249338 C25.7518151,186.351505 25.9568829,186.351505 26.1175049,186.249338 C26.6586946,185.906151 27.7499095,185.297152 28.9819002,185.081539 C30.440067,184.825451 31.6341917,185.210053 32.5299531,186.22479 C33.4733559,187.293109 33.8341311,188.435501 33.6317758,189.7186 C33.0360159,193.507308 27.7111034,197.218611 25.9607769,198.34505 L25.9326593,198.360896 C25.8421298,198.420278 25.7511706,198.478909 25.659916,198.536921 C24.3838556,197.713169 18.6436245,193.807469 18.0408554,189.797804 Z M37.5116269,197.450044 C36.8516827,198.242131 35.5140428,198.820297 33.6458211,199.123923 C32.8334458,199.252545 32.0130943,199.324631 31.1906482,199.339617 C30.9732807,198.883681 30.530704,197.896231 30.2077143,196.76622 C30.1817988,196.675683 30.1309079,196.59417 30.0607347,196.531323 C31.7238887,195.088877 32.9436065,193.68336 33.7101398,192.328926 C34.1184222,192.764531 34.390333,193.262661 34.5046563,193.492402 C34.5892239,193.66131 34.7598899,193.77054 34.9473674,193.77054 L34.9561759,193.77054 C35.3125469,193.77054 36.0077254,193.790683 36.6545641,194.045939 C37.398136,194.339896 37.8249755,194.828357 37.9569429,195.5421 C38.0977188,196.298923 37.9517061,196.922962 37.5116269,197.450044 Z" id="the_left_navigation_icons_07"></path>
            </g>
        </g>
    </g>
</svg>