<?xml version="1.0" encoding="UTF-8"?>
<svg width="98px" height="28px" viewBox="0 0 98 28" version="1.1" xmlns="http://www.w3.org/2000/svg" xmlns:xlink="http://www.w3.org/1999/xlink">
    <!-- Generator: Sketch 46.2 (44496) - http://www.bohemiancoding.com/sketch -->
    <title>DNXB-logo@6x</title>
    <desc>Created with Sketch.</desc>
    <defs>
        <linearGradient x1="-14.2523799%" y1="-4.95251218%" x2="104.932751%" y2="96.9921534%" id="linearGradient-1">
            <stop stop-color="#FE6522" offset="0%"></stop>
            <stop stop-color="#FF1A59" offset="100%"></stop>
        </linearGradient>
    </defs>
    <g id="Page-1" stroke="none" stroke-width="1" fill="none" fill-rule="evenodd">
        <g id="首页" transform="translate(-135.000000, -46.000000)">
            <g id="DNXB-logo" transform="translate(135.000000, 46.000000)">
                <rect id="Rectangle-39" fill="url(#linearGradient-1)" x="0" y="0" width="28" height="28" rx="6"></rect>
                <path d="M13.816923,17.0615004 C12.8206261,17.0615004 12.0130177,17.8715508 12.0130177,18.8707255 C12.0130177,19.8699605 12.8206261,20.6799505 13.816923,20.6799505 C14.8131598,20.6799505 15.6208283,19.8699605 15.6208283,18.8707255 C15.6208283,17.8715508 14.8131598,17.0615004 13.816923,17.0615004 M13.816923,23.0922506 C11.4922904,23.0922506 9.60781063,21.2022135 9.60781063,18.8707255 C9.60781063,16.5392374 11.4922904,14.6492003 13.816923,14.6492003 C16.1415557,14.6492003 18.0260354,16.5392374 18.0260354,18.8707255 C18.0260354,18.9725848 18.0211048,19.0732381 18.0140695,19.1733485 C19.4899046,17.9566447 20.4312425,16.1116573 20.4312425,14.0461253 C20.4312425,10.3823843 17.4698914,7.41230008 13.816923,7.41230008 L9.60781063,7.41230008 C8.94361269,7.41230008 8.40520709,7.95235376 8.40520709,8.61845012 L8.40520709,14.0461253 L8.40520709,20.6799505 L8.40520709,21.8861006 C8.40520709,22.5522572 7.86674135,23.0922506 7.20260354,23.0922506 C6.53840561,23.0922506 6,22.5522572 6,21.8861006 L6,20.6799505 L6,7.41230008 L6,6.20615004 C6,5.54005368 6.53840561,5 7.20260354,5 L8.40520709,5 L13.816923,5 C18.7982272,5 22.8364496,9.05007092 22.8364496,14.0461253 C22.8364496,19.0421797 18.7982272,23.0922506 13.816923,23.0922506" id="Fill-1" fill="#FFFFFF"></path>
                <g id="Group" transform="translate(33.000000, 1.000000)">
                    <text id="东南西北" font-family="PingFangSC-Semibold, PingFang SC" font-size="15" font-weight="500" letter-spacing="1.75" fill="#000000">
                        <tspan x="0" y="16">东南西</tspan>
                        <tspan x="50.25" y="16">北</tspan>
                    </text>
                    <text id="全球同质同价同折" font-family="PingFangSC-Medium, PingFang SC" font-size="7" font-weight="400" letter-spacing="1" fill="#999999">
                        <tspan x="1" y="26">全球同质同价同折</tspan>
                    </text>
                </g>
            </g>
        </g>
    </g>
</svg>