<?xml version="1.0" encoding="UTF-8"?>
<svg width="400px" height="89px" viewBox="0 0 400 89" version="1.1" xmlns="http://www.w3.org/2000/svg" xmlns:xlink="http://www.w3.org/1999/xlink">
    <!-- Generator: Sketch 46.2 (44496) - http://www.bohemiancoding.com/sketch -->
    <title>Group</title>
    <desc>Created with Sketch.</desc>
    <defs>
        <linearGradient x1="50%" y1="2.9815051%" x2="50%" y2="99.4100765%" id="linearGradient-1">
            <stop stop-color="#E2E2E2" stop-opacity="0.531476449" offset="0%"></stop>
            <stop stop-color="#E4E4E4" stop-opacity="0" offset="100%"></stop>
        </linearGradient>
        <linearGradient x1="50%" y1="0%" x2="50%" y2="100%" id="linearGradient-2">
            <stop stop-color="#F2F2F2" offset="0%"></stop>
            <stop stop-color="#FFFFFF" stop-opacity="0" offset="100%"></stop>
        </linearGradient>
        <linearGradient x1="50%" y1="0%" x2="50%" y2="100%" id="linearGradient-3">
            <stop stop-color="#E8E8E8" offset="0%"></stop>
            <stop stop-color="#FCFCFC" stop-opacity="0.496065444" offset="100%"></stop>
        </linearGradient>
        <linearGradient x1="50%" y1="2.9815051%" x2="50%" y2="99.4100765%" id="linearGradient-4">
            <stop stop-color="#E2E2E2" offset="0%"></stop>
            <stop stop-color="#E4E4E4" stop-opacity="0" offset="100%"></stop>
        </linearGradient>
        <linearGradient x1="50%" y1="2.9815051%" x2="50%" y2="99.4100765%" id="linearGradient-5">
            <stop stop-color="#E2E2E2" stop-opacity="0.423035553" offset="0%"></stop>
            <stop stop-color="#E4E4E4" stop-opacity="0" offset="100%"></stop>
        </linearGradient>
    </defs>
    <g id="Page-1" stroke="none" stroke-width="1" fill="none" fill-rule="evenodd">
        <g id="首页" transform="translate(-520.000000, -551.000000)">
            <g id="Group" transform="translate(520.000000, 551.000000)">
                <path d="M198.720146,78.7211741 L251.153692,78.7211741 L251.153692,66.1605789 L198.720146,66.1605789 L198.720146,78.7211741 Z M185.393619,79.2356399 L191.401641,79.2356399 L191.401641,34.1413537 L185.393619,34.1413537 L185.393619,79.2356399 Z M312.744576,33.9681468 L312.015314,33.9681468 L312.015314,32.5934886 L311.286053,32.5934886 L311.286053,25.7201978 L310.532726,25.7201978 L310.532726,32.5934886 L309.803464,32.5934886 L309.803464,33.9681468 L309.074202,33.9681468 L309.074202,35.6864695 L308.344941,35.6864695 L308.344941,42.7687083 L285.128168,42.7687083 L285.128168,35.6864695 L284.398906,35.6864695 L284.398906,33.9681468 L283.669644,33.9681468 L283.669644,32.5934886 L282.940383,32.5934886 L282.940383,25.7201978 L282.187056,25.7201978 L282.187056,32.5934886 L281.457794,32.5934886 L281.457794,33.9681468 L280.728532,33.9681468 L280.728532,35.6864695 L279.999271,35.6864695 L279.999271,75.9667028 L285.128168,75.9667028 L285.128168,75.081423 L308.344941,75.081423 L308.344941,75.9667028 L313.473838,75.9667028 L313.473838,35.6864695 L312.744576,35.6864695 L312.744576,33.9681468 Z M177.747311,79.2356399 L183.755333,79.2356399 L183.755333,34.1413537 L177.747311,34.1413537 L177.747311,79.2356399 Z M359.097174,45.1097511 L359.097174,39.0066126 L349.586873,39.0066126 L349.586873,47.8590675 L345.712306,47.8590675 L345.712306,89.0245807 L370.837922,89.0245807 L370.837922,45.1097511 L359.097174,45.1097511 Z M341.749134,39.6582005 L335.403464,39.6582005 L335.403464,46.5314913 L333.762625,46.5314913 L333.762625,80.2824421 L343.389973,80.2824421 L343.389973,46.5314913 L341.749134,46.5314913 L341.749134,39.6582005 Z M63.8935278,77.2568195 L101.16536,77.2568195 L101.16536,57.5277256 L63.8935278,57.5277256 L63.8935278,77.2568195 Z M53.2003646,46.3455688 L52.471103,46.3455688 L52.471103,42.9089234 L51.3772106,42.9089234 L51.3772106,38.0976199 L50.2833181,38.0976199 L50.2833181,35.6919681 L49.7363719,35.6919681 L49.7363719,32.9426518 L49.1959891,32.9426518 L49.1959891,35.6919681 L48.6490428,35.6919681 L48.6490428,38.0976199 L47.5551504,38.0976199 L47.5551504,42.9089234 L46.461258,42.9089234 L46.461258,46.3455688 L45.7319964,46.3455688 L45.7319964,47.0328979 L45.0027347,47.0328979 L45.0027347,45.991938 L43.5442115,45.991938 L43.5442115,42.9089234 L40.8754786,42.9089234 L40.8754786,45.991938 L38.3580675,45.991938 L38.3580675,38.0120474 L37.6288058,38.0120474 L37.6288058,37.3247183 L36.8182315,37.3247183 L36.8182315,35.917412 C36.8182315,33.2756627 35.043938,31.0301586 32.5600729,30.1648113 L32.5600729,28.3839417 L31.4661805,28.3839417 L31.4661805,24.2599672 L30.7369189,24.2599672 L30.7369189,20.1359927 L29.8738377,20.1359927 L29.8738377,24.2599672 L29.1445761,24.2599672 L29.1445761,28.3839417 L28.0506837,28.3839417 L28.0506837,30.165155 C25.5671832,31.0305023 23.7928897,33.2756627 23.7928897,35.917412 L23.7928897,37.3247183 L22.9823154,37.3247183 L22.9823154,38.0120474 L22.2530538,38.0120474 L22.2530538,45.991938 L19.7356427,45.991938 L19.7356427,42.9089234 L17.0669098,42.9089234 L17.0669098,45.991938 L15.6083865,45.991938 L15.6083865,47.0328979 L14.8791249,47.0328979 L14.8791249,46.3455688 L14.1498633,46.3455688 L14.1498633,42.9089234 L13.0559708,42.9089234 L13.0559708,38.0976199 L11.9620784,38.0976199 L11.9620784,35.6919681 L11.4151322,35.6919681 L11.4151322,32.9426518 L10.8747493,32.9426518 L10.8747493,35.6919681 L10.3278031,35.6919681 L10.3278031,38.0976199 L9.23391067,38.0976199 L9.23391067,42.9089234 L8.14001823,42.9089234 L8.14001823,46.3455688 L7.41075661,46.3455688 L7.41075661,47.0328979 L6.68149499,47.0328979 L6.68149499,81.380794 L53.9296263,81.380794 L53.9296263,47.0328979 L53.2003646,47.0328979 L53.2003646,46.3455688 Z M171.083683,46.3455688 L168.78979,46.3455688 L168.78979,43.7161914 L164.202005,43.7161914 L164.202005,52.1586545 L162.344576,52.1586545 L162.344576,75.5292179 L172.940747,75.5292179 L172.940747,52.1586545 L171.083683,52.1586545 L171.083683,46.3455688 Z M114.785779,82.4214102 L125.093163,82.4214102 L125.093163,26.0418678 L114.785779,26.0418678 L114.785779,82.4214102 Z M154.733637,25.1060693 L145.050137,25.1060693 L145.050137,31.9793601 L144.320875,31.9793601 L144.320875,81.380794 L155.462899,81.380794 L155.462899,31.9793601 L154.733637,31.9793601 L154.733637,25.1060693 Z M142.125798,19.7854549 L141.031905,19.7854549 L141.031905,18.0671322 L136.412762,13.3080656 L131.793984,18.0671322 L131.793984,19.7854549 L130.700091,19.7854549 L130.700091,27.6897393 L129.97083,27.6897393 L129.97083,73.0538022 L142.855059,73.0538022 L142.855059,27.6897393 L142.125798,27.6897393 L142.125798,19.7854549 Z" id="Fill-1" fill="url(#linearGradient-1)"></path>
                <g transform="translate(185.000000, 11.000000)">
                    <rect id="Rectangle" fill="url(#linearGradient-2)" x="0" y="0" width="50" height="50" rx="13"></rect>
                    <path d="M25.0833333,29.71875 C23.4724471,29.71875 22.1666667,31.0409213 22.1666667,32.6720282 C22.1666667,34.3031352 23.4724471,35.625 25.0833333,35.625 C26.6942196,35.625 28,34.3031352 28,32.6720282 C28,31.0409213 26.6942196,29.71875 25.0833333,29.71875 M24.607123,39 C21.1554251,39 18.357262,36.1794558 18.357262,32.7001494 C18.357262,29.2205629 21.1554251,26.4000187 24.607123,26.4000187 C28.0588209,26.4000187 30.857262,29.2205629 30.857262,32.7001494 C30.857262,32.8520206 30.8500345,33.0022105 30.8394712,33.1515598 C33.0308004,31.3361112 34.42877,28.582536 34.42877,25.5 C34.42877,20.0323585 30.0313786,15.5997945 24.607123,15.5997945 L18.357262,15.5997945 C17.3709832,15.5997945 16.57123,16.4059445 16.57123,17.4001121 L16.57123,25.5 L16.57123,35.3999253 L16.57123,37.1999626 C16.57123,38.1941302 15.7717548,39 14.785476,39 C13.7994752,39 13,38.1941302 13,37.1999626 L13,35.3999253 L13,15.5997945 L13,13.8000374 C13,12.8058698 13.7994752,12 14.785476,12 L16.57123,12 L24.607123,12 C32.0039362,12 38,18.0443035 38,25.5 C38,32.9559767 32.0039362,39 24.607123,39" id="Page-1" fill="url(#linearGradient-3)"></path>
                </g>
                <path d="M256.019398,26.155449 L255.290137,26.155449 L255.290137,22.7188036 L254.842005,22.7188036 L254.842005,26.155449 L254.112744,26.155449 L254.112744,28.2174362 L248.569991,28.2174362 L248.569991,26.155449 L247.840729,26.155449 L247.840729,22.7188036 L247.392233,22.7188036 L247.392233,26.155449 L246.662972,26.155449 L246.662972,28.2174362 L245.93371,28.2174362 L245.93371,83.0559868 L256.74866,83.0559868 L256.74866,28.2174362 L256.019398,28.2174362 L256.019398,26.155449 Z M264.700164,80.9939995 L302.135716,80.9939995 L302.135716,57.5107142 L264.700164,57.5107142 L264.700164,80.9939995 Z M384.382935,65.7590068 L384.382935,57.5110579 L383.289043,57.5110579 L383.289043,49.2631089 L384.382935,49.2631089 L384.382935,48.3039412 L385.112197,48.3039412 L385.112197,47.0011089 L384.747566,47.0011089 L384.747566,44.1638145 L385.112197,44.1638145 L385.112197,42.8609822 L384.382935,42.8609822 L384.382935,41.9018145 L383.835989,41.9018145 L383.835989,40.8148036 L382.559781,40.8148036 L382.559781,36.9537325 L381.860784,36.9537325 L381.860784,40.8148036 L380.584576,40.8148036 L380.584576,41.9018145 L380.03763,41.9018145 L380.03763,42.8609822 L379.308368,42.8609822 L379.308368,44.1638145 L379.672999,44.1638145 L379.672999,47.0011089 L379.308368,47.0011089 L379.308368,48.3039412 L380.03763,48.3039412 L380.03763,49.2631089 L381.131522,49.2631089 L381.131522,57.5110579 L380.03763,57.5110579 L380.03763,65.7590068 L357.802443,65.7590068 L357.802443,54.1888528 L330.212288,54.1888528 L330.212288,65.7590068 L321.947201,65.7590068 L321.947201,57.5110579 L315.748478,57.5110579 L315.748478,82.4837853 L321.947201,82.4837853 L321.947201,81.4527917 L330.212288,81.4527917 L330.212288,83.0559868 L357.802443,83.0559868 L357.802443,82.4837853 L396.840547,82.4837853 L396.840547,65.7590068 L384.382935,65.7590068 Z M237.353947,26.155449 L236.624686,26.155449 L236.624686,22.7188036 L236.176554,22.7188036 L236.176554,26.155449 L235.447293,26.155449 L235.447293,28.2174362 L229.90454,28.2174362 L229.90454,26.155449 L229.175278,26.155449 L229.175278,22.7188036 L228.726782,22.7188036 L228.726782,26.155449 L227.997521,26.155449 L227.997521,28.2174362 L227.268259,28.2174362 L227.268259,83.0559868 L238.083209,83.0559868 L238.083209,28.2174362 L237.353947,28.2174362 L237.353947,26.155449 Z M110.905816,81.5679193 L120.446381,81.5679193 L120.446381,48.7204626 L110.905816,48.7204626 L110.905816,81.5679193 Z M130.880656,43.9095027 L123.527876,43.9095027 L123.527876,47.3461481 L122.433984,47.3461481 L122.433984,83.6299066 L131.974549,83.6299066 L131.974549,47.3461481 L130.880656,47.3461481 L130.880656,43.9095027 Z M188.759964,83.8584435 L205.569444,83.8584435 L205.569444,62.551242 L188.759964,62.551242 L188.759964,83.8584435 Z M157.343737,85.0262156 L181.32113,85.0262156 L181.32113,55.6154043 L157.343737,55.6154043 L157.343737,85.0262156 Z M139.070629,85.0262156 L149.374366,85.0262156 L149.374366,52.1787589 L139.070629,52.1787589 L139.070629,85.0262156 Z" id="Fill-3" fill="url(#linearGradient-4)"></path>
                <path d="M247.681495,51.2193162 L234.220055,51.2193162 L234.220055,69.5830309 L210.367001,69.5830309 L210.367001,74.8136052 L200.920146,74.8136052 L200.920146,69.238679 L192.299909,69.238679 L192.299909,72.691133 L179.310665,72.691133 L179.310665,69.5830309 L161.598359,69.5830309 L161.598359,59.5583363 L146.011121,59.5583363 L146.011121,85.8235861 L161.598359,85.8235861 L161.598359,84.8303955 L174.233181,84.8303955 L174.233181,85.8235861 L192.299909,85.8235861 L192.299909,87.5522187 L200.920146,87.5522187 L200.920146,87.0559671 L237.053965,87.0559671 L237.053965,83.7224211 L252.640839,83.7224211 L252.640839,69.5830309 L247.681495,69.5830309 L247.681495,51.2193162 Z M314.048678,73.340659 C313.781768,73.3018249 313.500638,73.3296617 313.235552,73.441009 C312.967912,73.5530437 312.755697,73.7331239 312.607657,73.9486015 C312.381222,74.038298 312.154421,74.1262761 311.925798,74.2115049 L311.9134,72.374618 C312.373564,72.1921321 312.828624,71.9993363 313.278213,71.7982925 L314.715223,73.0344539 C314.494257,73.1385842 314.272197,73.2409963 314.048678,73.340659 L314.048678,73.340659 Z M311.901003,70.6136809 L312.986873,71.5477611 C312.631358,71.7048158 312.272926,71.8574028 311.910483,72.0031166 L311.901003,70.6136809 Z M299.79526,44.5666581 L317.141112,67.0684375 C315.475843,68.1980628 313.689152,69.1761321 311.801823,69.9837438 L299.79526,44.5666581 Z M310.396171,72.9351348 C310.784139,72.8021366 311.168095,72.6612342 311.549499,72.5148331 L311.561167,74.1712962 L310.396171,72.9351348 Z M309.439015,75.0393928 L309.439015,73.2468386 C309.635187,73.1860099 309.830264,73.1231193 310.024613,73.0588541 L311.317593,74.4307629 C310.69918,74.6489899 310.073108,74.8534703 309.439015,75.0393928 L309.439015,75.0393928 Z M309.763172,72.7815168 C309.655242,72.8165706 309.547311,72.8512807 309.439015,72.8853035 L309.439015,72.4375086 L309.763172,72.7815168 Z M309.439015,71.9199498 L309.439015,71.2583955 C310.149681,71.0216107 310.849043,70.7614566 311.535643,70.4789644 L311.546946,72.1447064 C311.081313,72.3254739 310.610574,72.4969625 310.134366,72.6577975 L309.439015,71.9199498 Z M305.273108,70.4731221 L299.462352,44.7065295 L311.469644,70.1253335 C310.804193,70.4016398 310.127803,70.6583572 309.439015,70.8910181 L309.439015,70.4731221 L305.273108,70.4731221 Z M299.105743,70.4731221 L299.105743,44.7793864 L304.900456,70.4731221 L299.105743,70.4731221 Z M298.332726,11.8027119 C298.529262,11.7996189 298.725798,11.7958386 298.923428,11.7958386 C299.121057,11.7958386 299.317593,11.7996189 299.514494,11.8027119 L298.923428,13.0766763 L298.332726,11.8027119 Z M298.741112,41.508731 L292.601094,14.2832825 C294.586144,13.8976909 296.639745,13.6932105 298.741112,13.6815259 L298.741112,41.508731 Z M298.741112,70.4731221 L292.948222,70.4731221 L298.741112,44.7855724 L298.741112,70.4731221 Z M287.253783,70.4731221 C286.959891,70.3610874 286.667821,70.2459598 286.378304,70.1260209 L298.385962,44.7072169 L292.57557,70.4731221 L287.253783,70.4731221 Z M280.707201,67.0694685 L298.053418,44.5670017 L286.04649,69.9844311 C284.159526,69.1768194 282.37247,68.1990938 280.707201,67.0694685 L280.707201,67.0694685 Z M285.571741,70.4731221 L283.18742,70.4731221 L283.352233,69.0833427 C284.150775,69.5108613 284.9701,69.9064192 285.80948,70.2686417 L285.571741,70.4731221 Z M282.820237,70.4731221 L282.646673,70.4731221 C282.359344,70.320535 282.074202,70.164855 281.792707,70.005051 L282.973017,69.1850674 L282.820237,70.4731221 Z M281.11814,70.4731221 L281.474385,70.2256836 C281.620602,70.3098814 281.768642,70.3913299 281.916317,70.4731221 L281.11814,70.4731221 Z M279.845943,70.4731221 L280.098268,69.3912661 C280.441386,69.6105241 280.789973,69.8225651 281.142206,70.0297948 L280.503737,70.4731221 L279.845943,70.4731221 Z M279.472926,70.4731221 L278.681677,70.4731221 C278.580675,70.2820446 278.43701,70.1081503 278.241203,69.9737775 C278.01258,69.8174101 277.751504,69.7363053 277.489335,69.7187784 C277.289517,69.5751266 277.090793,69.4301002 276.894257,69.2826681 L278.573382,68.3547738 C278.966819,68.6379534 279.367183,68.9125414 279.774476,69.1792251 L279.472926,70.4731221 Z M277.292799,67.3870145 C277.610757,67.6396079 277.93309,67.8877337 278.260893,68.1293299 L276.733455,68.97337 L277.292799,67.3870145 Z M274.118687,66.9680874 L275.890793,66.2109944 C276.251048,66.5306025 276.617867,66.8433372 276.992707,67.1481676 L276.378304,68.8898595 C275.595807,68.2801986 274.842844,67.6378896 274.118687,66.9680874 L274.118687,66.9680874 Z M273.990337,66.6453864 L274.722881,65.1232962 C275.011668,65.4054448 275.30629,65.6831257 275.606016,65.955308 L273.990337,66.6453864 Z M273.119964,66.0072014 C273.073655,65.7649179 272.961714,65.5308823 272.774294,65.3346499 C272.585415,65.1366991 272.348405,65.0064502 272.09608,64.9377173 C271.931632,64.7583244 271.769006,64.5775569 271.608933,64.395071 L273.456882,63.8159963 C273.78031,64.1692834 274.112124,64.5150099 274.451595,64.8545505 L273.647949,66.5244165 C273.470374,66.3539589 273.293892,66.1814393 273.119964,66.0072014 L273.119964,66.0072014 Z M271.520328,64.0603418 L272.415861,62.620731 C272.672197,62.9300291 272.93546,63.2334849 273.203464,63.533504 L271.520328,64.0603418 Z M269.398906,61.5880191 L271.30155,61.1945232 C271.584503,61.5780528 271.876208,61.9557401 272.176664,62.3265541 L271.19216,63.9087857 C270.560255,63.160628 269.961896,62.3863518 269.398906,61.5880191 L269.398906,61.5880191 Z M270.399088,59.9057811 C270.618961,60.2374174 270.843938,60.5659607 271.076937,60.8890054 L269.350775,61.2460728 L270.399088,59.9057811 Z M268.640839,60.4697346 C268.652871,60.2178285 268.594166,59.9600801 268.450501,59.7253572 C268.306108,59.4892597 268.097539,59.3115851 267.858706,59.1950829 C267.739471,58.9912898 267.623154,58.7857784 267.508295,58.579236 L269.44412,58.3750993 C269.684047,58.7861221 269.932361,59.1923335 270.191249,59.5923591 L269.037192,61.0677109 C268.903008,60.8697602 268.770647,60.6704347 268.640839,60.4697346 L268.640839,60.4697346 Z M268.691522,57.0086891 C268.873108,57.3592269 269.061623,57.7059844 269.256335,58.0489616 L267.505014,58.2335095 L268.691522,57.0086891 Z M267.210027,58.0286854 C266.755697,57.1722734 266.337101,56.2955851 265.960438,55.399308 L267.909754,55.3869361 C268.103373,55.8216717 268.307931,56.2505651 268.52124,56.6746471 L267.210027,58.0286854 Z M265.477666,54.1727693 C265.549134,53.9246435 265.549134,53.6545232 265.458706,53.3912761 C265.367548,53.1269981 265.198724,52.9077401 264.984321,52.7458741 C264.914312,52.5262725 264.846126,52.3059835 264.780857,52.0846635 L266.719599,52.2644001 C266.863993,52.7166626 267.018961,53.1644575 267.183774,53.6081284 L265.728532,54.8264192 C265.642115,54.6095669 265.558979,54.3916836 265.477666,54.1727693 L265.477666,54.1727693 Z M263.977575,48.6720747 L265.88423,49.0418577 C265.977575,49.5064922 266.080401,49.9680336 266.194895,50.4254511 L264.610939,51.4945915 C264.357156,50.5687593 264.147129,49.6267747 263.977575,48.6720747 L263.977575,48.6720747 Z M263.773382,47.381958 C263.899909,47.1523901 263.960073,46.8867374 263.929444,46.6097438 C263.898815,46.3344685 263.782133,46.0877173 263.609663,45.8883919 C263.589973,45.6595113 263.5732,45.4299434 263.55825,45.1996881 L265.412762,45.7547064 C265.453965,46.2265578 265.504284,46.6956599 265.567001,47.1609817 L263.875114,48.0675687 C263.83938,47.8397191 263.804376,47.6115259 263.773382,47.381958 L263.773382,47.381958 Z M263.489335,43.1438869 C263.489335,42.6613819 263.502826,42.1819698 263.524339,41.7042761 L265.307384,42.4390309 C265.302279,42.6734101 265.297903,42.908133 265.297903,43.1438869 C265.297903,43.3803281 265.302279,43.616082 265.307748,43.8514922 L263.524339,44.5862469 C263.502826,44.1078659 263.489335,43.6274229 263.489335,43.1438869 L263.489335,43.1438869 Z M265.319417,42.0692479 L263.709936,41.4059753 L265.382862,40.9055997 C265.354421,41.291535 265.333273,41.6795323 265.319417,42.0692479 L265.319417,42.0692479 Z M265.319781,44.2216189 C265.333637,44.6113345 265.354421,44.9993317 265.383227,45.385267 L263.709936,44.8845478 L265.319781,44.2216189 Z M263.610027,40.3966325 C263.782133,40.1973071 263.898815,39.9512433 263.929444,39.6763117 C263.960438,39.3989744 263.900273,39.1333217 263.773747,38.9034101 C263.804376,38.6755605 263.83938,38.4490856 263.874749,38.2229543 L265.566636,39.1295414 C265.50392,39.5952068 265.453601,40.0643089 265.412762,40.5361603 L263.55825,41.0908349 C263.5732,40.8588613 263.589973,40.6272314 263.610027,40.3966325 L263.610027,40.3966325 Z M264.61021,34.7952442 L266.194531,35.8650719 C266.080036,36.3224894 265.976846,36.7843746 265.8835,37.2493527 L263.976846,37.6184484 C264.146399,36.6634046 264.356427,35.7210765 264.61021,34.7952442 L264.61021,34.7952442 Z M264.985415,33.538463 C265.199088,33.3772843 265.367912,33.15837 265.458706,32.8947793 C265.549499,32.6315323 265.549499,32.3614119 265.478396,32.1129425 C265.558979,31.8954028 265.642115,31.6788942 265.727438,31.4634165 L267.183045,32.682051 C267.017867,33.1260655 266.862899,33.5742041 266.718505,34.0264666 L264.780128,34.2058595 C264.845761,33.9824776 264.914676,33.7601266 264.985415,33.538463 L264.985415,33.538463 Z M267.208933,28.2608067 L268.520146,29.6151886 C268.306837,30.039958 268.101914,30.469195 267.908295,30.903587 L265.959344,30.891215 C266.336007,29.9945943 266.754603,29.117906 267.208933,28.2608067 L267.208933,28.2608067 Z M269.254877,28.2419051 C269.060164,28.5848823 268.87165,28.9309525 268.690428,29.2811467 L267.505378,28.0573572 L269.254877,28.2419051 Z M267.860529,27.0895979 C268.098633,26.9730956 268.306837,26.7961084 268.450866,26.5610418 C268.594531,26.326319 268.653601,26.0685706 268.641933,25.8166644 C268.771012,25.6166517 268.902644,25.4187009 269.036098,25.2217811 L270.18979,26.6974767 C269.931267,27.0975022 269.682589,27.504401 269.442297,27.9157675 L267.507201,27.7116307 C267.622789,27.5030263 267.740201,27.295453 267.860529,27.0895979 L267.860529,27.0895979 Z M271.074749,25.4015177 C270.842479,25.7245624 270.617502,26.052762 270.39763,26.3840546 L269.350775,25.0444502 L271.074749,25.4015177 Z M271.191067,22.3803627 L272.175205,23.9625943 C271.874749,24.3344393 271.58268,24.7121266 271.299362,25.0959999 L269.397083,24.7021603 C269.960438,23.9038276 270.558797,23.1288641 271.191067,22.3803627 L271.191067,22.3803627 Z M273.201276,22.7570191 C272.933637,23.0563509 272.670738,23.3598067 272.414768,23.6687611 L271.519964,22.2301813 L273.201276,22.7570191 Z M272.098268,21.3473071 C272.350228,21.2785742 272.586509,21.1490127 272.774658,20.9517492 C272.962443,20.7555168 273.074385,20.5218249 273.121057,20.2798851 C273.294257,20.1059908 273.469644,19.9345022 273.646855,19.7643882 L274.450137,21.4349416 C274.110665,21.7744821 273.778487,22.1205523 273.455059,22.4741831 L271.606746,21.8951084 C271.768642,21.7109042 271.932361,21.5284183 272.098268,21.3473071 L272.098268,21.3473071 Z M275.603829,20.3345277 C275.304102,20.60671 275.01021,20.8837036 274.721422,21.1661959 L273.989973,19.6451366 L275.603829,20.3345277 Z M276.377211,17.3986015 L276.991613,19.1406371 C276.616408,19.4454675 276.249225,19.7588896 275.888605,20.0788413 L274.116864,19.3217483 C274.841021,18.6516025 275.594348,18.0089498 276.377211,17.3986015 L276.377211,17.3986015 Z M278.258706,18.1605058 C277.930902,18.4017583 277.609298,18.6495405 277.291705,18.9014466 L276.732726,17.3171531 L278.258706,18.1605058 Z M277.491887,16.5669334 C277.753692,16.5494065 278.014038,16.4686453 278.241933,16.3126216 C278.470921,16.1559106 278.633546,15.9462752 278.731996,15.71602 C278.938377,15.5806161 279.146217,15.4472743 279.355515,15.3159944 L279.773382,17.109236 C279.366089,17.3762634 278.964995,17.6515387 278.57083,17.9347182 L276.892069,17.0071676 C277.090428,16.8583609 277.290611,16.7119598 277.491887,16.5669334 L277.491887,16.5669334 Z M281.139654,16.2593536 C280.788149,16.4665833 280.439927,16.6782807 280.097174,16.897195 L279.718687,15.272349 L281.139654,16.2593536 Z M282.548587,13.5344375 L282.764813,15.3586088 C282.32835,15.5850838 281.896627,15.819463 281.472197,16.0634648 L279.906472,14.9761102 C280.762625,14.4609571 281.644667,13.980514 282.548587,13.5344375 L282.548587,13.5344375 Z M282.972288,17.1054557 L281.790155,16.2844411 C282.125615,16.0937073 282.465816,15.9091594 282.808933,15.7290792 L282.972288,17.1054557 Z M284.213491,14.6499726 C283.841933,14.8211175 283.474749,14.9984484 283.110848,15.1819653 L282.915041,13.5330628 L284.213491,14.6499726 Z M283.8,12.9464274 C284.06691,12.9852615 284.347675,12.9574247 284.612397,12.8460774 C284.879672,12.7340428 285.091522,12.5543062 285.239562,12.3391722 C285.465998,12.2491321 285.693528,12.161154 285.922151,12.0759252 L285.934913,13.9128121 C285.47402,14.0956417 285.018232,14.2884375 284.567912,14.4898249 L283.130902,13.2536635 C283.352963,13.1491895 283.575752,13.0464338 283.8,12.9464274 L283.8,12.9464274 Z M285.947311,15.6764985 L284.859253,14.7407 C285.215861,14.5833016 285.574658,14.4300273 285.937466,14.2843135 L285.947311,15.6764985 Z M283.154603,15.548999 C283.597995,15.3228677 284.046855,15.1056717 284.502279,14.8980984 L285.806928,16.0205067 C284.967912,16.3823855 284.148952,16.7779434 283.351139,17.2051184 L283.154603,15.548999 Z M280.172288,67.4712123 L279.85907,68.816659 C279.539289,68.6049616 279.223883,68.3887966 278.912489,68.167133 L280.172288,67.4712123 Z M277.973564,65.4566508 C278.66381,66.0329762 279.38031,66.5821521 280.122334,67.1003983 L278.600365,67.9416891 C278.198177,67.6481995 277.803646,67.3461184 277.416408,67.036133 L277.973564,65.4566508 Z M277.577211,65.4906736 L277.117046,66.7952242 C276.823154,66.554659 276.535096,66.3075642 276.250684,66.0573764 L277.577211,65.4906736 Z M275.613674,63.271288 C276.237557,63.912566 276.890611,64.5280692 277.571012,65.1160792 L275.962261,65.8030646 C275.594713,65.4724593 275.235187,65.1336061 274.884412,64.7871923 L275.613674,63.271288 Z M275.216226,63.265102 L274.614585,64.5153536 C274.348769,64.2472953 274.086964,63.9758003 273.831358,63.6988067 L275.216226,63.265102 Z M273.507566,60.8670108 C274.057794,61.5660245 274.640474,62.2413253 275.25196,62.8915387 L273.575752,63.4166581 C273.246855,63.0516863 272.926345,62.6798413 272.61495,62.301123 L273.507566,60.8670108 Z M273.114494,60.8192415 L272.375752,62.0069461 C272.140565,61.7134566 271.910848,61.4158431 271.686235,61.114793 L273.114494,60.8192415 Z M271.678578,58.2692506 C272.148587,59.0184393 272.651048,59.7473518 273.186691,60.4525514 L271.461623,60.8096189 C271.175387,60.4154356 270.898997,60.0147228 270.631358,59.6081676 L271.678578,58.2692506 Z M271.295716,58.1798978 L270.425342,59.2923399 C270.223336,58.9765122 270.027894,58.6565605 269.837192,58.3335159 L271.295716,58.1798978 Z M270.14567,55.5072187 C270.529626,56.2979908 270.949681,57.070205 271.403282,57.8224867 L269.645761,58.0077219 C269.405834,57.5894821 269.175023,57.1660874 268.954786,56.7365067 L270.14567,55.5072187 Z M269.779581,55.3755952 L268.78742,56.4000592 C268.620784,56.0642989 268.458159,55.7264767 268.30392,55.3848741 L269.779581,55.3755952 Z M267.609298,53.7115715 L268.928897,52.6073773 C269.222425,53.4318285 269.554603,54.2401275 269.921057,55.0308996 L268.153692,55.0418969 C267.961896,54.6033809 267.78031,54.1600537 267.609298,53.7115715 L267.609298,53.7115715 Z M267.76062,55.0443026 L266.004193,55.0556435 L267.315041,53.9579789 C267.456153,54.323638 267.606016,54.6851731 267.76062,55.0443026 L267.76062,55.0443026 Z M268.582498,52.4369197 L267.478396,53.3613773 C267.349681,53.0104958 267.227165,52.6572087 267.111577,52.3004849 L268.582498,52.4369197 Z M268.043938,49.6003126 C268.243756,50.450195 268.48113,51.2870181 268.756427,52.1080327 L266.999271,51.9451357 C266.857794,51.4908112 266.727621,51.0320191 266.608022,50.5694466 L268.043938,49.6003126 Z M266.606928,51.9087073 L264.863628,51.7468413 L266.288605,50.7852679 C266.387785,51.1622679 266.493528,51.5368623 266.606928,51.9087073 L266.606928,51.9087073 Z M266.514676,50.2096298 C266.426071,49.847751 266.346217,49.483123 266.270738,49.1164329 L267.718323,49.3972068 L266.514676,50.2096298 Z M267.498815,46.5217656 C267.602735,47.3881439 267.744941,48.2438686 267.926527,49.0865341 L266.196354,48.7514612 C266.107019,48.2861394 266.029717,47.8166936 265.962261,47.3448422 L267.498815,46.5217656 Z M265.78979,45.8674284 L267.196171,46.2884174 L265.911577,46.9764338 C265.86381,46.6087128 265.823701,46.2389297 265.78979,45.8674284 L265.78979,45.8674284 Z M265.621331,47.5273281 C265.677849,47.912576 265.740565,48.2961057 265.812033,48.676886 L264.09608,48.3442187 L265.621331,47.5273281 Z M265.620966,38.763195 L264.095716,37.9459607 L265.811304,37.6139808 C265.739836,37.9947611 265.677484,38.377947 265.620966,38.763195 L265.620966,38.763195 Z M267.196171,40.0024493 L265.789426,40.4230947 C265.823336,40.0515933 265.863446,39.6818103 265.911212,39.3140892 L267.196171,40.0024493 Z M267.297903,43.4067902 C267.305925,44.2807292 267.353692,45.1460765 267.440474,46.0011139 L265.756244,45.496958 C265.718687,45.0254502 265.693163,44.5508495 265.678578,44.0738431 L267.297903,43.4067902 Z M265.678213,42.2170236 C265.693163,41.7400172 265.718687,41.2654165 265.75588,40.7939088 L267.440109,40.2900965 C267.353692,41.1451339 267.305925,42.0104812 267.297903,42.8844201 L265.678213,42.2170236 Z M267.021513,43.1456052 L265.670191,43.7019981 C265.66691,43.5160756 265.662534,43.3304967 265.662534,43.1438869 C265.662534,42.958308 265.66691,42.7734165 265.670191,42.588525 L267.021513,43.1456052 Z M267.925798,37.2046763 C267.744211,38.0469981 267.60237,38.9027228 267.49845,39.7691011 L265.961896,38.9460245 C266.028988,38.4738294 266.10629,38.0047273 266.195624,37.5397492 L267.925798,37.2046763 Z M266.287876,35.5052552 L264.863263,34.5436818 L266.606199,34.3821594 C266.492434,34.7536608 266.387056,35.1285988 266.287876,35.5052552 L266.287876,35.5052552 Z M267.718687,36.8940036 L266.270009,37.1744338 C266.345852,36.8077438 266.425342,36.442772 266.513947,36.0808933 L267.718687,36.8940036 Z M268.755333,34.1831777 C268.480401,35.0041923 268.243026,35.8406717 268.043209,36.6905541 L266.607293,35.7210765 C266.726892,35.2588477 266.8567,34.8000555 266.998177,34.3460747 L268.755333,34.1831777 Z M267.477666,32.9284584 L268.582498,33.853947 L267.110483,33.9903819 C267.226436,33.6336581 267.348952,33.2796836 267.477666,32.9284584 L267.477666,32.9284584 Z M267.314312,32.3322005 L266.004193,31.2352232 L267.759526,31.2462205 C267.604558,31.60535 267.455059,31.9668851 267.314312,32.3322005 L267.314312,32.3322005 Z M269.919234,31.2599671 C269.553145,32.0510829 269.221331,32.8586945 268.928168,33.6831458 L267.608569,32.5786079 C267.779216,32.1304694 267.960802,31.6874858 268.152233,31.2489698 L269.919234,31.2599671 Z M269.779581,30.9156152 L268.302461,30.9063363 C268.457065,30.5640464 268.619325,30.2258805 268.786326,29.8901202 L269.779581,30.9156152 Z M271.401459,28.46838 C270.948222,29.220318 270.528532,29.9921886 270.144576,30.7829607 L268.953692,29.553329 C269.173564,29.1244356 269.404376,28.7010409 269.643938,28.2831448 L271.401459,28.46838 Z M271.295351,28.1113126 L269.835369,27.9573509 C270.026071,27.6339625 270.221878,27.3133235 270.424613,26.9971521 L271.295351,28.1113126 Z M273.184503,25.8383153 C272.649225,26.5431713 272.147129,27.2717401 271.677484,28.0209288 L270.630264,26.6816681 C270.897539,26.2751129 271.173564,25.8747438 271.459799,25.4812479 L273.184503,25.8383153 Z M273.114129,25.4719689 L271.684412,25.1757301 C271.909025,24.8743363 272.138742,24.5763791 272.374294,24.2825459 L273.114129,25.4719689 Z M275.249772,23.3986407 C274.638286,24.0488541 274.056335,24.7238112 273.506108,25.4228249 L272.613856,23.9883691 C272.924886,23.6096508 273.245032,23.2381494 273.573929,22.8735213 L275.249772,23.3986407 Z M275.215497,23.0254211 L273.82917,22.5913727 C274.085141,22.3140355 274.347311,22.0421968 274.613127,21.7737948 L275.215497,23.0254211 Z M277.568824,21.1741002 C276.888788,21.7617665 276.235734,22.3772697 275.612215,23.0182041 L274.882954,21.5019562 C275.233728,21.155886 275.59289,20.8173764 275.960073,20.4867711 L277.568824,21.1741002 Z M277.576481,20.8001932 L276.248496,20.2324593 C276.533273,19.9819279 276.821696,19.7348331 277.115953,19.4935806 L277.576481,20.8001932 Z M278.910301,18.1223591 C279.221696,17.9003518 279.53783,17.6838431 279.857976,17.4721458 L280.171559,18.8196544 L278.910301,18.1223591 Z M280.119781,19.1890938 C279.378122,19.7076836 278.662352,20.2561722 277.97247,20.8324976 L277.415314,19.2526717 C277.802188,18.94303 278.196354,18.6412925 278.598177,18.3481467 L280.119781,19.1890938 Z M297.513036,44.1106152 L275.583409,62.721081 C274.216044,61.2742533 272.999635,59.6999261 271.952416,58.0197501 L297.513036,44.1106152 Z M297.331449,43.8126581 L271.7701,57.721793 C270.753874,56.0471157 269.907566,54.2707137 269.252325,52.4114885 L297.331449,43.8126581 Z M297.219143,43.4858331 L269.135278,52.0860382 C268.5165,50.2594612 268.082954,48.3559033 267.853601,46.3946098 L297.219143,43.4858331 Z M297.180492,43.1438869 L267.812762,46.0533509 C267.712853,45.0959015 267.659253,44.1257365 267.659253,43.1438869 C267.659253,42.1623809 267.712853,41.192216 267.812762,40.2351102 L297.180492,43.1438869 Z M297.218414,42.8022843 L267.853601,39.8935077 C268.082954,37.9325578 268.516135,36.0289999 269.134913,34.2024229 L297.218414,42.8022843 Z M271.952051,28.2687109 C272.998906,26.5888787 274.215679,25.0142077 275.583045,23.5677237 L297.512671,42.1775022 L271.952051,28.2687109 Z M297.330356,42.4751157 L269.25196,33.8769726 C269.907566,32.0177474 270.75351,30.2413454 271.7701,28.5666681 L297.330356,42.4751157 Z M280.181768,17.2604484 C280.599271,16.9906717 281.024066,16.730174 281.455424,16.4786116 L282.876026,17.4652725 C282.081495,17.9079124 281.308478,18.3814821 280.560255,18.8859817 L280.181768,17.2604484 Z M280.408933,19.418318 L297.756974,41.9225031 L275.823336,23.309288 C277.211121,21.8748322 278.748405,20.5726872 280.408933,19.418318 L280.408933,19.418318 Z M280.561714,67.4028231 C281.310301,67.9076663 282.083683,68.381236 282.878578,68.8242196 L281.457612,69.8108805 C281.026253,69.5589744 280.601094,69.298133 280.182862,69.0283563 L280.561714,67.4028231 Z M280.410027,66.870143 C278.749499,65.7161175 277.211486,64.4136289 275.824066,62.9791731 L297.758432,44.364927 L280.410027,66.870143 Z M298.05196,41.7204284 L280.706108,19.2189926 C282.371376,18.0897109 284.158432,17.1116417 286.045397,16.30403 L298.05196,41.7204284 Z M287.450319,13.3526389 C287.062716,13.4859808 286.67949,13.6265396 286.298815,13.772597 L286.287147,12.1185396 L287.450319,13.3526389 Z M289.43938,10.9638267 L289.248678,12.7914347 C288.768459,12.9275259 288.292616,13.0735833 287.821513,13.2292634 L286.528897,11.8573545 C287.480219,11.5215943 288.451231,11.2229498 289.43938,10.9638267 L289.43938,10.9638267 Z M291.045943,12.6862734 L292.074567,14.0396243 C291.172835,14.2279525 290.285324,14.4516781 289.414585,14.7111448 L289.58742,13.0546818 C290.069098,12.9216836 290.555515,12.7989954 291.045943,12.6862734 L291.045943,12.6862734 Z M289.797083,11.0435569 L290.81732,12.3852232 C290.41732,12.4787 290.019872,12.5783627 289.626071,12.6852424 L289.797083,11.0435569 Z M292.290428,13.7337629 L291.427712,12.5986389 C291.811668,12.5147848 292.199271,12.4395222 292.588332,12.3687273 L292.290428,13.7337629 Z M292.245943,14.3609507 L298.384503,41.5802132 L286.377211,16.1624402 C288.245943,15.3874767 290.208387,14.7805651 292.245943,14.3609507 L292.245943,14.3609507 Z M288.083318,13.5066006 C288.455971,13.3852871 288.831541,13.2698158 289.210027,13.1605304 L289.064904,14.5482479 L288.083318,13.5066006 Z M288.884047,14.8736982 C288.009298,15.1503481 287.152051,15.4634265 286.313036,15.8081221 L286.301367,14.1427237 C286.766272,13.9622998 287.236281,13.7911549 287.711759,13.6303199 L288.884047,14.8736982 Z M290.779034,10.6390637 C291.03464,10.7328841 291.32051,10.7614083 291.608933,10.7036727 C291.896263,10.6462807 292.144211,10.5108768 292.337101,10.328391 C292.577028,10.2854329 292.818049,10.2452242 293.059799,10.2070774 L292.667821,12.0044429 C292.174111,12.0920774 291.684412,12.1893345 291.198724,12.2972451 L290.063628,10.8043664 C290.301003,10.7462871 290.539836,10.6923317 290.779034,10.6390637 L290.779034,10.6390637 Z M294.273655,11.7563171 C293.865269,11.8099288 293.458706,11.8690391 293.055059,11.9360537 L293.407293,10.320143 L294.273655,11.7563171 Z M296.744029,9.8125505 L296.15515,11.5600847 C295.654512,11.5985751 295.156427,11.6463445 294.662352,11.7054548 L293.700456,10.1108513 C294.702097,9.97097985 295.717229,9.87131714 296.744029,9.8125505 L296.744029,9.8125505 Z M297.781404,11.4724502 C297.368277,11.4855095 296.956609,11.5050984 296.547129,11.5322479 L297.078031,9.95620228 L297.781404,11.4724502 Z M296.428624,11.8838167 C296.928897,11.8484192 297.432088,11.8247064 297.938195,11.8106161 L298.646308,13.337174 C297.719052,13.3447346 296.800912,13.389411 295.894075,13.4712032 L296.428624,11.8838167 Z M295.341294,13.5258459 C294.42206,13.6241339 293.513765,13.7578194 292.620055,13.9289644 L292.975934,12.2986198 C293.46928,12.2140783 293.967001,12.1415651 294.467639,12.0779871 L295.341294,13.5258459 Z M294.858159,12.0302178 C295.248678,11.9851977 295.641021,11.9473946 296.035552,11.9150902 L295.588879,13.2412916 L294.858159,12.0302178 Z M298.134366,9.75687685 C298.362261,9.89640465 298.632817,9.9792278 298.924886,9.9792278 C299.216955,9.9792278 299.487511,9.89640465 299.715406,9.75687685 C299.961896,9.76203181 300.207293,9.77062343 300.452689,9.78024603 L299.673108,11.4611093 C299.423701,11.4559543 299.174294,11.452174 298.923428,11.452174 C298.672926,11.452174 298.423154,11.4559543 298.174111,11.4611093 L297.394166,9.78024603 C297.640292,9.77062343 297.886782,9.76203181 298.134366,9.75687685 L298.134366,9.75687685 Z M301.300091,11.5322479 C300.890611,11.5050984 300.478943,11.4855095 300.065816,11.4724502 L300.768824,9.95620228 L301.300091,11.5322479 Z M304.146764,10.1108513 L303.184503,11.7054548 C302.690428,11.6463445 302.192707,11.5989188 301.692069,11.5600847 L301.103191,9.8125505 C302.129991,9.87131714 303.145123,9.97097985 304.146764,10.1108513 L304.146764,10.1108513 Z M304.79216,11.9360537 C304.388514,11.8690391 303.981586,11.8099288 303.5732,11.7563171 L304.439927,10.320143 L304.79216,11.9360537 Z M305.5134,10.3287346 C305.705925,10.5115642 305.953874,10.6466243 306.240839,10.70436 C306.529626,10.7624393 306.815497,10.7339151 307.071103,10.639751 C307.309572,10.6930191 307.547311,10.7466307 307.783592,10.8043664 L306.648131,12.2972451 C306.162808,12.1893345 305.672744,12.0920774 305.179398,12.0044429 L304.78742,10.2074211 C305.030264,10.2455678 305.272015,10.2861202 305.5134,10.3287346 L305.5134,10.3287346 Z M308.221149,12.6852424 C307.826983,12.5783627 307.429535,12.4787 307.0299,12.3852232 L308.050137,11.0435569 L308.221149,12.6852424 Z M308.432634,14.7111448 C307.561531,14.4516781 306.673655,14.2279525 305.771923,14.0396243 L306.800912,12.6862734 C307.29134,12.7989954 307.777758,12.9216836 308.259799,13.0546818 L308.432634,14.7111448 Z M311.318323,11.8576982 L310.025342,13.2292634 C309.554239,13.0735833 309.07876,12.9275259 308.598541,12.7914347 L308.40784,10.9641704 C309.395989,11.2229498 310.367001,11.5215943 311.318323,11.8576982 L311.318323,11.8576982 Z M311.548405,13.772597 C311.16773,13.6265396 310.784139,13.4856371 310.396536,13.3526389 L311.560073,12.1181959 L311.548405,13.772597 Z M310.134731,13.6303199 C310.61021,13.7911549 311.080583,13.9622998 311.545852,14.1427237 L311.53382,15.8084657 C310.694804,15.4630829 309.837192,15.1503481 308.962078,14.8736982 L310.134731,13.6303199 Z M308.781951,14.5475605 L308.637192,13.1608741 C309.015679,13.2698158 309.390884,13.3852871 309.763537,13.5066006 L308.781951,14.5475605 Z M305.258888,12.3687273 C305.647949,12.4395222 306.035187,12.5147848 306.419143,12.5986389 L305.556427,13.7330756 L305.258888,12.3687273 Z M305.60237,14.3612943 C307.639562,14.7809088 309.60237,15.3878203 311.470738,16.1627839 L299.464175,41.5805569 L305.60237,14.3612943 Z M305.246855,14.2836262 L299.105743,41.514917 L299.105743,13.6815259 C301.207475,13.6932105 303.261805,13.8976909 305.246855,14.2836262 L305.246855,14.2836262 Z M301.953145,13.4712032 C301.046308,13.389411 300.128168,13.3447346 299.200547,13.337174 L299.90866,11.8106161 C300.414768,11.8247064 300.917958,11.8484192 301.418232,11.8838167 L301.953145,13.4712032 Z M303.379216,12.0779871 C303.880219,12.1415651 304.377575,12.2140783 304.871285,12.2986198 L305.2268,13.9289644 C304.33309,13.7578194 303.424795,13.6241339 302.505561,13.5258459 L303.379216,12.0779871 Z M302.258341,13.2409479 L301.811668,11.9150902 C302.205834,11.9473946 302.598177,11.9851977 302.988696,12.0302178 L302.258341,13.2409479 Z M317.141841,19.2196799 L299.796718,41.7204284 L311.802917,16.3047173 C313.689881,17.1119853 315.476572,18.0900546 317.141841,19.2196799 L317.141841,19.2196799 Z M311.909754,14.2843135 C312.272197,14.4300273 312.630994,14.582958 312.987238,14.7403563 L311.899544,15.6754675 L311.909754,14.2843135 Z M311.925068,12.0759252 C312.15515,12.1618413 312.383409,12.2501631 312.610939,12.3405469 C312.758979,12.5553372 312.9701,12.7347301 313.236645,12.8467647 C313.501732,12.958112 313.782498,12.9862925 314.049407,12.9474584 C314.272926,13.0474648 314.494986,13.1498768 314.715953,13.2540072 L313.278578,14.4894812 C312.828624,14.2884375 312.3732,14.0956417 311.911942,13.9128121 L311.925068,12.0759252 Z M314.692616,15.548999 L314.49608,17.2051184 C313.697903,16.7779434 312.878943,16.3820418 312.039562,16.0205067 L313.344576,14.8980984 C313.8,15.1056717 314.249225,15.3228677 314.692616,15.548999 L314.692616,15.548999 Z M314.736007,15.1823089 C314.37247,14.9987921 314.004923,14.8211175 313.633364,14.6499726 L314.932179,13.5334065 L314.736007,15.1823089 Z M316.056335,16.2840974 L314.874932,17.104081 L315.038286,15.7290792 C315.381404,15.9091594 315.720875,16.0937073 316.056335,16.2840974 L316.056335,16.2840974 Z M315.298633,13.5347811 C316.202552,13.980514 317.084594,14.4609571 317.940747,14.9761102 L316.374658,16.0634648 C315.950228,15.819463 315.51887,15.5850838 315.082407,15.3586088 L315.298633,13.5347811 Z M317.750046,16.8975387 C317.407293,16.6786243 317.05907,16.4665833 316.707201,16.2593536 L318.128532,15.2726927 L317.750046,16.8975387 Z M319.118505,15.7184256 C319.216955,15.9479935 319.378851,16.1569416 319.60711,16.3136526 C319.835005,16.4696763 320.094986,16.5504375 320.356427,16.568308 C320.557703,16.7126471 320.757156,16.8587046 320.95515,17.0071676 L319.276026,17.9347182 C318.88186,17.6515387 318.48113,17.3762634 318.073838,17.1095797 L318.491705,15.3159944 C318.702097,15.4483053 318.91103,15.5823345 319.118505,15.7184256 L319.118505,15.7184256 Z M320.555515,18.9017902 C320.237922,18.6495405 319.915953,18.4017583 319.588149,18.1605058 L321.114494,17.3174967 L320.555515,18.9017902 Z M323.730356,19.3217483 L321.957885,20.0784976 C321.59763,19.7588896 321.230447,19.4458112 320.855606,19.1409808 L321.470009,17.3989452 C322.252871,18.0092934 323.005834,18.6516025 323.730356,19.3217483 L323.730356,19.3217483 Z M323.857247,19.6451366 L323.125433,21.1661959 C322.836645,20.8837036 322.542753,20.6063664 322.243026,20.334184 L323.857247,19.6451366 Z M324.729079,20.282978 C324.775752,20.5242305 324.887329,20.7572351 325.073655,20.9527802 C325.26217,21.1500437 325.498086,21.2796052 325.749681,21.3486818 C325.914859,21.5291057 326.078578,21.7112479 326.240109,21.8951084 L324.391431,22.4734958 C324.068368,22.1205523 323.73619,21.7744821 323.396718,21.4349416 L324.200365,19.7647319 C324.378304,19.9358768 324.554786,20.1083964 324.729079,20.282978 L324.729079,20.282978 Z M326.327256,22.2298376 L325.432088,23.6687611 C325.176117,23.3598067 324.913218,23.0560072 324.645214,22.7563317 L326.327256,22.2298376 Z M328.449772,24.7021603 L326.547129,25.0956562 C326.26381,24.711783 325.972106,24.3340956 325.67165,23.9629379 L326.655789,22.3807064 C327.288058,23.1292077 327.886418,23.9038276 328.449772,24.7021603 L328.449772,24.7021603 Z M327.449225,26.3840546 C327.228988,26.0524183 327.004011,25.723875 326.771741,25.4008304 L328.496809,25.0441066 L327.449225,26.3840546 Z M329.207475,25.8201011 C329.196536,26.0713199 329.254512,26.3280373 329.397448,26.5617292 C329.541477,26.7971394 329.749316,26.9741266 329.986691,27.0906289 C330.107019,27.2957966 330.224066,27.5030263 330.339654,27.7112871 L328.404193,27.9147365 C328.163902,27.5037137 327.915588,27.0975022 327.657065,26.6974767 L328.810757,25.2217811 C328.944941,25.4200756 329.077666,25.6190573 329.207475,25.8201011 L329.207475,25.8201011 Z M329.156427,29.2811467 C328.97484,28.9309525 328.786326,28.584195 328.591613,28.2412178 L330.341841,28.0570136 L329.156427,29.2811467 Z M330.637922,28.2608067 C331.092252,29.1175624 331.510848,29.9942506 331.887147,30.8905277 L329.938195,30.902556 C329.744576,30.4685077 329.540018,30.0396143 329.326709,29.6151886 L330.637922,28.2608067 Z M332.370283,32.1170665 C332.299544,32.3648486 332.29918,32.6332506 332.389608,32.8958103 C332.480401,33.159401 332.648496,33.377628 332.86144,33.5391503 C332.932179,33.7604703 333.001094,33.9824776 333.066727,34.2055159 L331.127985,34.0254356 C330.983592,33.5731731 330.828624,33.1253782 330.66381,32.682051 L332.119052,31.4634165 C332.205469,31.6802688 332.288605,31.8981521 332.370283,32.1170665 L332.370283,32.1170665 Z M333.869644,37.6177611 L331.96299,37.247978 C331.869644,36.7833436 331.766819,36.3218021 331.652325,35.8647283 L333.236645,34.7949005 C333.490428,35.7207328 333.700091,36.663061 333.869644,37.6177611 L333.869644,37.6177611 Z M334.073838,38.9075341 C333.94804,39.137102 333.888241,39.40138 333.91887,39.6773427 C333.949499,39.9519306 334.065451,40.1976508 334.236828,40.3966325 C334.256882,40.6272314 334.273655,40.8585177 334.288605,41.0898039 L332.434093,40.5347857 C332.393254,40.0632779 332.342935,39.5945195 332.280219,39.1291977 L333.972106,38.2226107 C334.00784,38.4504603 334.042844,38.6783098 334.073838,38.9075341 L334.073838,38.9075341 Z M334.357521,43.1438869 C334.357521,43.6270792 334.344029,44.1071786 334.322516,44.585216 L332.539471,43.8501175 C332.544576,43.6153946 332.548952,43.3799844 332.548952,43.1438869 C332.548952,42.908133 332.544576,42.6734101 332.539471,42.4386872 L334.322516,41.7039325 C334.344029,42.1816262 334.357521,42.6613819 334.357521,43.1438869 L334.357521,43.1438869 Z M332.463628,40.9042251 L334.137284,41.405288 L332.527074,42.0689042 C332.513582,41.6788449 332.492434,41.290504 332.463628,40.9042251 L332.463628,40.9042251 Z M332.527074,44.2202442 L334.137648,44.8838604 L332.463628,45.3849233 C332.492434,44.9983007 332.513218,44.6103035 332.527074,44.2202442 L332.527074,44.2202442 Z M334.236828,45.8925159 C334.065451,46.0914976 333.949499,46.3365304 333.91887,46.6104311 C333.887876,46.887081 333.947675,47.1523901 334.073473,47.3816143 C334.042479,47.6108386 334.00784,47.8386881 333.971741,48.0661941 L332.279854,47.159607 C332.342571,46.6942852 332.39289,46.2255268 332.434093,45.7543627 L334.288605,45.1993445 C334.273655,45.4309744 334.256882,45.6622606 334.236828,45.8925159 L334.236828,45.8925159 Z M333.236281,51.4935605 L331.652325,50.4237328 C331.766819,49.966659 331.869644,49.5054612 331.962625,49.0411704 L333.86928,48.671731 C333.700091,49.6264311 333.490064,50.5680719 333.236281,51.4935605 L333.236281,51.4935605 Z M332.861076,52.7499981 C332.648496,52.9111768 332.480401,53.1294037 332.389608,53.3923071 C332.29845,53.6552105 332.29845,53.9246435 332.369553,54.1727693 C332.288241,54.3913399 332.205105,54.6088796 332.118687,54.8253882 L330.663446,53.6064101 C330.828259,53.1634265 330.983227,52.7156316 331.127621,52.2637128 L333.066363,52.0839762 C333.000365,52.3070145 332.931814,52.5290218 332.861076,52.7499981 L332.861076,52.7499981 Z M330.637557,58.0276544 L329.326345,56.6729288 C329.539654,56.2488468 329.744211,55.8202971 329.937466,55.3862488 L331.886782,55.3986207 C331.510119,56.2948978 331.091887,57.1712424 330.637557,58.0276544 L330.637557,58.0276544 Z M328.590884,58.0479306 C328.785962,57.7046098 328.974476,57.3578522 329.156062,57.0073144 L330.342206,58.2324785 L328.590884,58.0479306 Z M329.986326,59.1985195 C329.748587,59.3146781 329.541112,59.4913217 329.397083,59.7260446 C329.253418,59.9604238 329.194713,60.2178285 329.206381,60.4697346 C329.076572,60.6700911 328.944211,60.8690728 328.810392,61.0666799 L327.6567,59.5906407 C327.915223,59.1909589 328.163537,58.7850911 328.403464,58.3740683 L330.338924,58.578205 C330.223336,58.7861221 330.10629,58.9930081 329.986326,59.1985195 L329.986326,59.1985195 Z M326.771012,60.8879744 C327.003646,60.5645861 327.228624,60.2356991 327.448861,59.9040628 L328.497174,61.2453855 L326.771012,60.8879744 Z M326.655789,63.907411 L325.67165,62.3248358 C325.971741,61.9540218 326.263446,61.5766781 326.546399,61.1931485 L328.448678,61.5869881 C327.885688,62.3853208 327.287329,63.159597 326.655789,63.907411 L326.655789,63.907411 Z M324.644485,63.5321294 C324.912853,63.2324539 325.175752,62.9286544 325.432088,62.6193563 L326.327621,64.0596544 L324.644485,63.5321294 Z M325.748952,64.9397793 C325.497721,65.0088559 325.26144,65.1384174 325.073291,65.3353372 C324.885506,65.5315696 324.773564,65.7652615 324.726892,66.0068577 C324.553327,66.1810956 324.377575,66.3529279 324.2,66.5233855 L323.397083,64.8528322 C323.73619,64.5136353 324.068004,64.1679088 324.390702,63.8149653 L326.239015,64.39404 C326.077849,64.5779005 325.914129,64.7593554 325.748952,64.9397793 L325.748952,64.9397793 Z M322.241933,65.954277 C322.542024,65.681751 322.836645,65.4040701 323.125798,65.1215778 L323.857976,66.6446991 L322.241933,65.954277 Z M321.470009,68.8888285 L320.855971,67.146793 C321.230447,66.8419625 321.597265,66.5295715 321.957156,66.2099634 L323.729262,66.9670564 C323.005105,67.6368586 322.252507,68.2791676 321.470009,68.8888285 L321.470009,68.8888285 Z M319.58742,68.1279552 C319.915588,67.8867027 320.237557,67.6385769 320.55588,67.3859835 L321.115223,68.972339 L319.58742,68.1279552 Z M320.355697,69.7201531 C320.094257,69.7380236 319.834275,69.8184411 319.606381,69.9744648 C319.377028,70.1311758 319.214403,70.3408112 319.115588,70.5714101 C318.909207,70.7068139 318.701367,70.8401558 318.491705,70.9717793 L318.074202,69.1781941 C318.48113,68.9115104 318.881495,68.6365788 319.275296,68.3537428 L320.953692,69.2816371 C320.756427,69.4297565 320.556609,69.5758139 320.355697,69.7201531 L320.355697,69.7201531 Z M316.706472,70.0291075 C317.058706,69.8215341 317.407293,69.6094931 317.75041,69.3898914 L318.129262,71.017143 L316.706472,70.0291075 Z M315.299362,72.7529926 L315.083136,70.9288212 C315.519234,70.7023463 315.949863,70.4683108 316.373929,70.2249963 L317.939654,71.3123509 C317.083865,71.8271603 316.202552,72.3072597 315.299362,72.7529926 L315.299362,72.7529926 Z M317.66618,69.0269817 C317.247584,69.297102 316.822425,69.5575997 316.390702,69.8098495 L314.9701,68.8231886 C315.764995,68.380205 316.538742,67.9062916 317.287694,67.4011047 L317.66618,69.0269817 Z M322.023883,62.9784858 C320.636098,64.4125979 319.098815,65.7150865 317.438286,66.8694557 L300.090611,44.3652706 L322.023883,62.9784858 Z M317.675661,18.8182798 L317.989243,17.4721458 C318.309025,17.6838431 318.624795,17.9003518 318.936554,18.1220154 L317.675661,18.8182798 Z M319.874749,20.8328413 C319.184868,20.2561722 318.468368,19.7073399 317.726345,19.1884065 L319.248678,18.347803 C319.650501,18.6412925 320.045032,18.94303 320.431905,19.2530154 L319.874749,20.8328413 Z M320.271103,20.7988185 L320.731267,19.4939242 C321.02516,19.7348331 321.313582,19.9815842 321.597995,20.2321157 L320.271103,20.7988185 Z M322.23464,23.0182041 C321.610757,22.3769261 320.957703,21.7614229 320.277666,21.1734129 L321.886782,20.4864274 C322.253965,20.8173764 322.613127,21.155886 322.963902,21.5019562 L322.23464,23.0182041 Z M322.632452,23.0243901 L323.233728,21.7737948 C323.499544,22.0421968 323.761349,22.3140355 324.01732,22.5910291 L322.632452,23.0243901 Z M324.340747,25.4228249 C323.79052,24.7234675 323.20784,24.0481667 322.596354,23.3976098 L324.272562,22.8731777 C324.601459,23.2381494 324.921969,23.6096508 325.233364,23.9883691 L324.340747,25.4228249 Z M324.73382,25.4705943 L325.472562,24.2828896 C325.707748,24.5763791 325.937466,24.873649 326.161714,25.1750428 L324.73382,25.4705943 Z M326.169371,28.0209288 C325.699727,27.2713964 325.196901,26.542484 324.661623,25.8372843 L326.386691,25.4802169 C326.672926,25.8744001 326.949316,26.2751129 327.216591,26.6816681 L326.169371,28.0209288 Z M326.552598,28.1095943 L327.422242,26.9971521 C327.624613,27.3129799 327.820419,27.6332752 328.011121,27.9563199 L326.552598,28.1095943 Z M327.702279,30.7829607 C327.318323,29.9918449 326.898268,29.2192871 326.444667,28.4670054 L328.202188,28.2821139 C328.442115,28.7003536 328.672926,29.124092 328.893163,29.553329 L327.702279,30.7829607 Z M328.068733,30.9142406 L329.060529,29.8901202 C329.227165,30.2255368 329.389426,30.5633591 329.543665,30.9049616 L328.068733,30.9142406 Z M330.238286,32.5782643 L328.918687,33.6831458 C328.62516,32.8580072 328.292981,32.0497082 327.926527,31.2585924 L329.693892,31.2479388 C329.885688,31.6864548 330.067274,32.1301257 330.238286,32.5782643 L330.238286,32.5782643 Z M330.086964,31.2451895 L331.843026,31.2345359 L330.532543,32.3318568 C330.391431,31.9665414 330.241933,31.6046626 330.086964,31.2451895 L330.086964,31.2451895 Z M329.265816,33.8525724 L330.369189,32.9284584 C330.497903,33.2793399 330.620055,33.6326271 330.736007,33.9890072 L329.265816,33.8525724 Z M329.803646,36.6902105 C329.603829,35.8399844 329.366454,35.0028176 329.090793,34.1814593 L330.848314,34.3447 C330.98979,34.7993682 331.119964,35.2581603 331.239562,35.7207328 L329.803646,36.6902105 Z M331.240292,34.3811284 L332.983956,34.5429944 L331.558979,35.5052552 C331.459435,35.1279115 331.354057,34.7529735 331.240292,34.3811284 L331.240292,34.3811284 Z M331.332908,36.0805496 C331.421513,36.4420847 331.501003,36.8067128 331.576481,37.1730592 L330.129991,36.8926289 L331.332908,36.0805496 Z M330.348405,39.7687574 C330.244485,38.9020355 330.102279,38.0456234 329.920693,37.202958 L331.650866,37.5383746 C331.740201,38.0036964 331.817502,38.4734858 331.884959,38.9456809 L330.348405,39.7687574 Z M332.057429,40.4220637 L330.652507,40.0010747 L331.935278,39.3137456 C331.983045,39.681123 332.023519,40.0505624 332.057429,40.4220637 L332.057429,40.4220637 Z M332.035187,37.6129498 L333.751504,37.945617 L332.225889,38.7628513 C332.169371,38.3776034 332.106655,37.9937301 332.035187,37.6129498 L332.035187,37.6129498 Z M332.225889,47.5256098 L333.751869,48.3435314 L332.035187,48.6761986 C332.106655,48.2950747 332.169006,47.911545 332.225889,47.5256098 L332.225889,47.5256098 Z M330.652507,46.2873864 L332.057065,45.8670847 C332.023154,46.2378987 331.983045,46.6076818 331.935278,46.9747155 L330.652507,46.2873864 Z M330.548952,43.4043846 L332.168277,44.0721248 C332.153692,44.5494748 332.128168,45.0244192 332.090611,45.4962706 L330.406381,46.0000829 C330.493163,45.1450455 330.54093,44.2793545 330.548952,43.4043846 L330.548952,43.4043846 Z M332.176664,42.5881813 C332.179945,42.7730728 332.184321,42.9579644 332.184321,43.1438869 C332.184321,43.3298094 332.179945,43.5153882 332.176664,43.7006234 L330.827165,43.1442305 L332.176664,42.5881813 Z M330.548952,42.8840765 C330.54093,42.0094502 330.493163,41.1434156 330.406746,40.2880345 L332.090975,40.7925341 C332.128168,41.2643855 332.153692,41.7393299 332.168642,42.2166799 L330.548952,42.8840765 Z M329.920693,49.0858468 C330.102279,48.2428376 330.24412,47.3864256 330.348405,46.5197036 L331.884959,47.3431239 C331.817502,47.8156626 331.740201,48.2851084 331.650501,48.7507738 L329.920693,49.0858468 Z M331.558979,50.7832059 L332.984686,51.7464976 L331.239927,51.9076763 C331.353692,51.5358313 331.459435,51.1608933 331.558979,50.7832059 L331.558979,50.7832059 Z M330.129991,49.3958322 L331.576117,49.1157456 C331.501003,49.482092 331.421149,49.8463764 331.332543,50.2079115 L330.129991,49.3958322 Z M329.090793,52.1070017 C329.366089,51.2852998 329.603464,50.448133 329.803646,49.5979069 L331.239562,50.5677283 C331.119599,51.0306444 330.989426,51.4894366 330.847949,51.9441047 L329.090793,52.1070017 Z M330.369189,53.3600026 L329.265816,52.4362324 L330.735643,52.3001412 C330.620055,52.6561777 330.497903,53.0094648 330.369189,53.3600026 L330.369189,53.3600026 Z M330.532543,53.9562606 L331.843756,55.0546125 L330.0866,55.0432716 C330.241568,54.6841421 330.391067,54.3222634 330.532543,53.9562606 L330.532543,53.9562606 Z M327.926527,55.029525 C328.292981,54.2384092 328.62516,53.4301102 328.918687,52.6049716 L330.238286,53.7098531 C330.067274,54.1583354 329.885324,54.6020063 329.693528,55.0412096 L327.926527,55.029525 Z M328.069462,55.3742205 L329.5433,55.3838431 C329.389061,55.725102 329.2268,56.0629242 329.060529,56.3979972 L328.069462,55.3742205 Z M326.444303,57.821112 C326.897903,57.0688304 327.317958,56.2962725 327.702279,55.5051567 L328.892799,56.7351321 C328.672562,57.1643691 328.44175,57.5884511 328.201823,58.0066909 L326.444303,57.821112 Z M326.553327,58.1785232 L328.010392,58.3324849 C327.820055,58.6551859 327.624613,58.9751376 327.422242,59.2909653 L326.553327,58.1785232 Z M324.661258,60.4511768 C325.196901,59.7456335 325.699727,59.0163773 326.169736,58.2668449 L327.216591,59.6064493 C326.948952,60.0133481 326.672197,60.414061 326.385962,60.8082442 L324.661258,60.4511768 Z M324.734549,60.8182105 L326.161349,61.113762 C325.937101,61.4148121 325.707748,61.712082 325.472562,62.0052278 L324.734549,60.8182105 Z M322.595989,62.890164 C323.20784,62.239607 323.79052,61.5643062 324.341112,60.8646052 L325.233364,62.2994046 C324.921969,62.6784666 324.601094,63.0503117 324.272197,63.4156271 L322.595989,62.890164 Z M322.633546,63.2644147 L324.016591,63.6977757 C323.760985,63.9744256 323.499544,64.2459206 323.234093,64.5139789 L322.633546,63.2644147 Z M325.895169,58.0190628 C324.847949,59.6988951 323.631541,61.2732223 322.264175,62.72005 L300.334913,44.1102716 L325.895169,58.0190628 Z M300.335278,42.1781895 L322.26454,23.5680674 C323.631905,25.0148951 324.848314,26.5892223 325.895169,28.2693983 L300.335278,42.1781895 Z M300.518323,42.4754593 L326.077119,28.5670118 C327.093345,30.2420327 327.939654,32.0180911 328.594895,33.8773162 L300.518323,42.4754593 Z M300.630629,42.8022843 L328.711942,34.2027665 C329.33072,36.0293436 329.763902,37.9325578 329.993254,39.8935077 L300.630629,42.8022843 Z M300.667457,43.1438869 L330.034093,40.2351102 C330.134002,41.192216 330.187603,42.1623809 330.187603,43.1438869 C330.187603,44.1257365 330.134002,45.0955578 330.034093,46.0530072 L300.667457,43.1438869 Z M328.594895,52.4108012 C327.939654,54.2696827 327.093345,56.0460847 326.077119,57.720762 L300.517229,43.8126581 L328.594895,52.4108012 Z M300.6299,43.4858331 L329.993254,46.3942661 C329.763902,48.355216 329.33072,50.2587738 328.711942,52.0853509 L300.6299,43.4858331 Z M320.277302,65.1147046 C320.957703,64.5263509 321.611121,63.9108477 322.235369,63.269226 L322.964266,64.7858176 C322.613127,65.1322314 322.253601,65.4710847 321.886053,65.8020336 L320.277302,65.1147046 Z M320.272197,65.4899862 L321.59763,66.0563454 C321.313218,66.3065332 321.02516,66.5529407 320.731632,66.7938495 L320.272197,65.4899862 Z M318.935825,68.1664457 C318.624795,68.3877656 318.309389,68.6039306 317.989973,68.8152843 L317.676755,67.470525 L318.935825,68.1664457 Z M317.72598,67.0993673 C318.468368,66.5807775 319.184868,66.0316015 319.875479,65.4545888 L320.43227,67.0347583 C320.045032,67.3447438 319.650137,67.6468249 319.247949,67.9406581 L317.72598,67.0993673 Z M317.2866,18.8863253 C316.538377,18.3814821 315.764995,17.9079124 314.970465,17.4649288 L316.391431,16.4786116 C316.822789,16.7305177 317.247584,16.9906717 317.665451,17.2604484 L317.2866,18.8863253 Z M317.438651,19.4190054 C319.09918,20.5730309 320.636463,21.8755195 322.023883,23.3099753 L300.092069,41.9221594 L317.438651,19.4190054 Z M314.87639,69.1847237 L316.055971,70.00402 C315.720875,70.1944101 315.381768,70.3786143 315.03938,70.5580072 L314.87639,69.1847237 Z M313.344211,71.3896754 L312.039198,70.2676107 C312.878943,69.9057319 313.698633,69.5094867 314.497174,69.081968 L314.69371,70.7384311 C314.24959,70.964906 313.8,71.182102 313.344211,71.3896754 L313.344211,71.3896754 Z M314.737101,71.1054648 L314.932908,72.7564293 L313.632999,71.6384885 C314.004923,71.4669999 314.372835,71.2889817 314.737101,71.1054648 L314.737101,71.1054648 Z M341.912306,73.4781248 L341.435734,73.4781248 L331.458706,67.9031986 L321.481313,73.4781248 L314.635005,73.4781248 L314.635005,73.5571676 C314.602917,73.5368914 314.5701,73.5193645 314.536919,73.5018376 C316.094986,72.7870154 317.589973,71.9690938 319.011668,71.0573518 C319.005469,71.34603 319.090428,71.6388322 319.284412,71.890051 C319.756974,72.5021175 320.666727,72.6392397 321.316864,72.1938504 C321.96773,71.7481175 322.11103,70.8906745 321.638469,70.2779206 C321.443391,70.0249835 321.172835,69.8583062 320.877849,69.775483 C322.24412,68.7726699 323.531267,67.679473 324.729079,66.5041403 C324.785597,66.7904129 324.933273,67.0625952 325.180857,67.2722305 C325.778122,67.7784484 326.69845,67.7341157 327.236281,67.1708495 C327.774111,66.6072397 327.725251,65.7405177 327.127985,65.2336125 C326.880766,65.0239771 326.577758,64.9143481 326.270009,64.8913226 C327.383956,63.6486316 328.404558,62.3299908 329.32124,60.9439917 C329.440474,61.2099881 329.643938,61.4443673 329.929809,61.5997036 C330.625524,61.9777346 331.515953,61.754009 331.917776,61.0979534 C332.319599,60.4412105 332.080401,59.6033563 331.384686,59.2242943 C331.100638,59.069989 330.785597,59.0208449 330.483683,59.0552114 C331.294986,57.6314092 332.001276,56.1471221 332.591978,54.6109416 C332.767001,54.8418841 333.01495,55.026432 333.323792,55.1205961 C334.087329,55.354288 334.909207,54.9607921 335.157156,54.2401275 C335.405469,53.5191193 334.986873,52.7462178 334.222607,52.5121822 C333.914859,52.4180181 333.599453,52.4293591 333.314676,52.5193992 C333.789061,50.9760017 334.148222,49.3868969 334.385232,47.762051 C334.607293,47.9541594 334.890975,48.0864703 335.214403,48.1180874 C336.01258,48.1967866 336.729809,47.6510473 336.813309,46.897391 C336.897174,46.1437346 336.317046,45.4698085 335.51814,45.390422 C335.194713,45.3584612 334.888058,45.4326927 334.628441,45.5773755 C334.689335,44.7735441 334.722151,43.9621521 334.722151,43.1438869 C334.722151,42.3259653 334.689335,41.5152606 334.628441,40.7117729 C334.888058,40.8564557 335.195077,40.9303436 335.51887,40.8980391 C336.316682,40.8186526 336.897903,40.1440391 336.813674,39.3910701 C336.729079,38.6370701 336.013309,38.0916745 335.214038,38.1703737 C334.890975,38.2026781 334.607657,38.3346453 334.385597,38.5270974 C334.148587,36.9019078 333.789426,35.3131467 333.315041,33.7697492 C333.600182,33.8594457 333.915588,33.8707866 334.223701,33.7762789 C334.986873,33.5418996 335.406563,32.7686544 335.157885,32.0483335 C334.908842,31.3273253 334.088423,30.9341731 333.323792,31.167865 C333.015314,31.2623727 332.767366,31.4472643 332.592707,31.6785505 C332.002005,30.1420263 331.295716,28.6573955 330.484047,27.2335933 C330.786691,27.2683035 331.101732,27.2188158 331.386144,27.0638231 C332.080766,26.6851047 332.320693,25.8462196 331.91887,25.1905077 C331.515953,24.5341084 330.626618,24.3100391 329.930173,24.6887574 C329.644667,24.8444375 329.441203,25.0791603 329.322334,25.3451567 C328.405287,23.9591576 327.384686,22.6398294 326.270738,21.3974821 C326.578851,21.3744566 326.88186,21.264484 327.129444,21.0541613 C327.725615,20.5475997 327.775205,19.6798468 327.237375,19.1172679 C326.69845,18.5543454 325.779216,18.5093253 325.181951,19.0162305 C324.934366,19.2265532 324.787056,19.4987356 324.730902,19.7850081 C323.532361,18.6096754 322.245214,17.5161348 320.878943,16.5133217 C321.174294,16.4301549 321.445214,16.2631339 321.640292,16.0098531 C322.111395,15.3977866 321.968459,14.5389689 321.318323,14.094267 C320.667092,13.6492214 319.758067,13.7853126 319.285871,14.3980665 C319.091522,14.6499726 319.006928,14.9427747 319.013491,15.2317966 C317.591431,14.3193673 316.09608,13.5014457 314.538013,12.7866234 C314.802735,12.6470956 315.025524,12.432649 315.15825,12.1511877 C315.483865,11.460422 315.154968,10.6483427 314.420966,10.3407629 C313.685871,10.0328395 312.826436,10.3445432 312.499727,11.0363399 C312.367001,11.3167702 312.347311,11.615071 312.413674,11.8930956 C310.830811,11.2837784 309.191796,10.7785915 307.505743,10.3861266 C307.731085,10.1981421 307.899544,9.94623601 307.966636,9.64724786 C308.132908,8.90768177 307.631905,8.17773829 306.846126,8.02068359 C306.059253,7.86397256 305.287329,8.33685497 305.119964,9.07779572 C305.052871,9.37575287 305.097721,9.66958605 305.22206,9.92699079 C303.54804,9.64552954 301.833911,9.47644658 300.088788,9.42352224 C300.26928,9.19498532 300.380128,8.91455506 300.380128,8.60766263 C300.380128,7.85022598 299.728532,7.23609745 298.924886,7.23609745 C298.12124,7.23609745 297.469644,7.85022598 297.469644,8.60766263 C297.469644,8.91455506 297.580128,9.19464166 297.760985,9.42317858 C296.016226,9.47610292 294.301732,9.64552954 292.628077,9.92630346 C292.752051,9.66889872 292.796901,9.37506554 292.729809,9.07710839 C292.562808,8.33616764 291.790155,7.86294157 291.003646,8.02068359 C290.217502,8.17808195 289.71577,8.90630711 289.882771,9.64724786 C289.950228,9.94589234 290.118687,10.1977985 290.344029,10.3854393 C288.658341,10.7779042 287.019325,11.2827474 285.436463,11.891721 C285.502826,11.61404 285.482771,11.3157392 285.35041,11.0353089 C285.023336,10.3431686 284.163172,10.0318085 283.428806,10.3400756 C282.694439,10.6483427 282.364448,11.4590473 282.691522,12.150844 C282.824248,12.4319616 283.047037,12.6460646 283.311395,12.7855924 C281.753327,13.500071 280.258706,14.3179926 278.836281,15.2297346 C278.842844,14.9410564 278.75825,14.6485979 278.563902,14.3970355 C278.09134,13.7839379 277.181222,13.6478468 276.531085,14.0935797 C275.880948,14.5386253 275.736919,15.3964119 276.209116,16.0091658 C276.404193,16.2621029 276.675114,16.4287802 276.969736,16.5116034 C275.603829,17.5140728 274.316682,18.6076134 273.11887,19.7826025 C273.062352,19.4966736 272.915041,19.2244912 272.667457,19.0148559 C272.070191,18.5079507 271.149863,18.5529707 270.612397,19.1162369 C270.074202,19.6791594 270.122698,20.5465687 270.719964,21.0531303 C270.967183,21.2631093 271.269827,21.3727383 271.577575,21.3957638 C270.463628,22.6377675 269.443391,23.9564083 268.526345,25.3424074 C268.407475,25.0767547 268.204011,24.8427191 267.918505,24.6873828 C267.222425,24.3086644 266.332361,24.5330774 265.930538,25.189133 C265.52835,25.8451886 265.767183,26.6840737 266.463263,27.0627921 C266.746946,27.2170974 267.061623,27.2665851 267.363537,27.2322187 C266.552233,28.6556772 265.845943,30.1396207 265.255242,31.6754575 C265.080583,31.4445149 264.832999,31.2606544 264.524521,31.1664903 C263.760255,30.9324548 262.939471,31.3262943 262.690793,32.0466152 C262.442115,32.7672798 262.860711,33.5412123 263.625342,33.7749042 C263.932726,33.8690683 264.247767,33.8577273 264.532179,33.7683746 C264.058159,35.3110847 263.698997,36.8995022 263.461623,38.5240045 C263.239927,38.3322397 262.956609,38.2009598 262.634275,38.168999 C261.83464,38.0899562 261.11887,38.6360391 261.03464,39.3893518 C260.950775,40.1430081 261.530538,40.8176216 262.330173,40.8966644 C262.652871,40.9286253 262.959161,40.855081 263.218414,40.7107419 C263.157521,41.5145733 263.124704,42.3256216 263.124704,43.1438869 C263.124704,43.9611211 263.157521,44.7714821 263.218414,45.5746262 C262.958797,45.4302871 262.652507,45.3567428 262.329809,45.3890473 C261.530538,45.4680902 260.95041,46.1427036 261.03464,46.8960163 C261.11887,47.6496727 261.83464,48.1960993 262.634275,48.1167128 C262.956609,48.084752 263.239562,47.9531284 263.461258,47.7613636 C263.698268,49.3858659 264.057429,50.9739397 264.531449,52.5169935 C264.247037,52.4276407 263.931996,52.4162998 263.624977,52.5108076 C262.860711,52.7448431 262.441386,53.5180883 262.690428,54.2387529 C262.939107,54.9597611 263.760255,55.3536006 264.524157,55.1192214 C264.83227,55.0250573 265.079854,54.8408531 265.254512,54.6102542 C265.845214,56.1460911 266.551139,57.6300345 267.362078,59.0531494 C267.060529,59.0191266 266.745852,59.068958 266.462534,59.2232634 C265.767183,59.6019817 265.527256,60.4405232 265.929809,61.0965788 C266.331632,61.752978 267.22206,61.977391 267.917776,61.598329 C268.203282,61.4433363 268.406381,61.2093007 268.525251,60.943648 C269.441933,62.3293035 270.46217,63.6479443 271.575752,64.8899479 C271.268368,64.9133171 270.966089,65.0232898 270.719234,65.2329252 C270.122334,65.7394867 270.072744,66.606896 270.611304,67.1694748 C271.149134,67.7330847 272.069462,67.7781047 272.666363,67.2711995 C272.913582,67.0615642 273.060893,66.7897255 273.117411,66.5041403 C274.315223,67.6787857 275.602005,68.7723263 276.967548,69.7744521 C276.673291,69.8579625 276.403099,70.0242962 276.208022,70.2772333 C276.160255,70.3397802 276.122698,70.4061075 276.086964,70.4731221 L271.888605,70.4731221 L271.888605,82.715484 L309.439015,82.715484 L309.439015,75.3978349 C310.449772,75.1046891 311.440839,74.7689288 312.411486,74.3957091 C312.345488,74.6733901 312.365542,74.9716909 312.498268,75.2517775 C312.825342,75.9428869 313.685141,76.2556216 314.419143,75.9470108 C314.496445,75.9143627 314.566819,75.8734666 314.635005,75.8308522 L314.635005,85.8235861 L359.979034,85.8235861 L359.979034,62.7939379 L341.912306,62.7939379 L341.912306,73.4781248 Z M133.78979,82.715484 L141.996171,82.715484 L141.996171,56.4502342 L133.78979,56.4502342 L133.78979,82.715484 Z M369.436098,27.2191594 C365.327438,27.2191594 361.63227,38.9322779 361.63227,50.6917912 L361.63227,85.8235861 L377.239927,85.8235861 L377.239927,50.6917912 C377.239927,38.9322779 373.544758,27.2191594 369.436098,27.2191594 L369.436098,27.2191594 Z M50.1128532,80.8552278 L60.6295351,80.8552278 L60.6295351,74.4245769 L59.0448496,74.4245769 L59.0448496,73.5767565 L60.6295351,73.5767565 L60.6295351,72.6581412 L59.0448496,72.6581412 L59.0448496,71.8103208 L60.6295351,71.8103208 L60.6295351,70.8917055 L59.0448496,70.8917055 L59.0448496,70.0435414 L60.6295351,70.0435414 L60.6295351,69.1252697 L59.0448496,69.1252697 L59.0448496,68.2771057 L60.6295351,68.2771057 L60.6295351,67.3584903 L59.0448496,67.3584903 L59.0448496,66.5106699 L60.6295351,66.5106699 L60.6295351,65.5920546 L59.0448496,65.5920546 L59.0448496,64.7442342 L60.6295351,64.7442342 L60.6295351,63.8256189 L59.0448496,63.8256189 L59.0448496,62.9777985 L60.6295351,62.9777985 L60.6295351,62.0591831 L59.0448496,62.0591831 L59.0448496,61.2113627 L60.6295351,61.2113627 L60.6295351,60.2927474 L59.0448496,60.2927474 L59.0448496,59.444927 L60.6295351,59.444927 L60.6295351,58.5263117 L59.0448496,58.5263117 L59.0448496,57.6781476 L60.6295351,57.6781476 L60.6295351,56.7598759 L59.0448496,56.7598759 L59.0448496,55.9117119 L60.6295351,55.9117119 L60.6295351,54.9930965 L59.0448496,54.9930965 L59.0448496,54.1452761 L60.6295351,54.1452761 L60.6295351,53.2266608 L59.0448496,53.2266608 L59.0448496,52.3788404 L60.6295351,52.3788404 L60.6295351,51.4602251 L59.0448496,51.4602251 L59.0448496,50.6124046 L60.6295351,50.6124046 L60.6295351,49.6937893 L59.0448496,49.6937893 L59.0448496,48.8459689 L60.6295351,48.8459689 L60.6295351,45.4670592 L50.1128532,50.9656918 L50.1128532,80.8552278 Z M118.987967,82.715484 L127.194348,82.715484 L127.194348,56.4502342 L118.987967,56.4502342 L118.987967,82.715484 Z M61.9039198,49.4112971 L62.8238833,49.4112971 L62.8238833,50.4711585 L61.9039198,50.4711585 L61.9039198,51.2292825 L62.8238833,51.2292825 L62.8238833,52.2891439 L61.9039198,52.2891439 L61.9039198,53.0476116 L62.8238833,53.0476116 L62.8238833,54.107473 L61.9039198,54.107473 L61.9039198,54.865597 L62.8238833,54.865597 L62.8238833,55.9254584 L61.9039198,55.9254584 L61.9039198,56.6839261 L62.8238833,56.6839261 L62.8238833,57.7437875 L61.9039198,57.7437875 L61.9039198,58.5019115 L62.8238833,58.5019115 L62.8238833,59.5617729 L61.9039198,59.5617729 L61.9039198,60.3202406 L62.8238833,60.3202406 L62.8238833,61.380102 L61.9039198,61.380102 L61.9039198,62.138226 L62.8238833,62.138226 L62.8238833,63.1980874 L61.9039198,63.1980874 L61.9039198,63.9565551 L62.8238833,63.9565551 L62.8238833,65.0164165 L61.9039198,65.0164165 L61.9039198,65.7748841 L62.8238833,65.7748841 L62.8238833,66.8347456 L61.9039198,66.8347456 L61.9039198,67.5928696 L62.8238833,67.5928696 L62.8238833,68.652731 L61.9039198,68.652731 L61.9039198,69.4111986 L62.8238833,69.4111986 L62.8238833,70.4710601 L61.9039198,70.4710601 L61.9039198,71.229184 L62.8238833,71.229184 L62.8238833,72.2890455 L61.9039198,72.2890455 L61.9039198,73.0475131 L62.8238833,73.0475131 L62.8238833,74.1073746 L61.9039198,74.1073746 L61.9039198,74.8654985 L62.8238833,74.8654985 L62.8238833,75.92536 L61.9039198,75.92536 L61.9039198,77.8498814 L72.3250684,77.8498814 L72.3250684,75.92536 L71.4051048,75.92536 L71.4051048,74.8654985 L72.3250684,74.8654985 L72.3250684,74.1073746 L71.4051048,74.1073746 L71.4051048,73.0475131 L72.3250684,73.0475131 L72.3250684,72.2890455 L71.4051048,72.2890455 L71.4051048,71.229184 L72.3250684,71.229184 L72.3250684,70.4710601 L71.4051048,70.4710601 L71.4051048,69.4111986 L72.3250684,69.4111986 L72.3250684,68.652731 L71.4051048,68.652731 L71.4051048,67.5928696 L72.3250684,67.5928696 L72.3250684,66.8347456 L71.4051048,66.8347456 L71.4051048,65.7748841 L72.3250684,65.7748841 L72.3250684,65.0164165 L71.4051048,65.0164165 L71.4051048,63.9565551 L72.3250684,63.9565551 L72.3250684,63.1980874 L71.4051048,63.1980874 L71.4051048,62.138226 L72.3250684,62.138226 L72.3250684,61.380102 L71.4051048,61.380102 L71.4051048,60.3202406 L72.3250684,60.3202406 L72.3250684,59.5617729 L71.4051048,59.5617729 L71.4051048,58.5019115 L72.3250684,58.5019115 L72.3250684,57.7437875 L71.4051048,57.7437875 L71.4051048,56.6839261 L72.3250684,56.6839261 L72.3250684,55.9254584 L71.4051048,55.9254584 L71.4051048,54.865597 L72.3250684,54.865597 L72.3250684,54.107473 L71.4051048,54.107473 L71.4051048,53.0476116 L72.3250684,53.0476116 L72.3250684,52.2891439 L71.4051048,52.2891439 L71.4051048,51.2292825 L72.3250684,51.2292825 L72.3250684,50.4711585 L71.4051048,50.4711585 L71.4051048,49.4112971 L72.3250684,49.4112971 L72.3250684,48.351092 L61.9039198,48.351092 L61.9039198,49.4112971 Z M101.67639,5.72741012 L101.085688,2.06188414 L100.643391,2.06188414 L100.310848,-0.000103099362 L99.946217,-0.000103099362 L99.6140383,2.06188414 L99.1717411,2.06188414 L98.5810392,5.72741012 L97.8773017,5.72741012 L88.1493163,63.1613153 L77.0820419,63.1613153 L77.0820419,69.9026389 L97.3992707,69.9026389 L97.3992707,70.80304 L112.954421,70.80304 L102.380128,5.72741012 L101.67639,5.72741012 Z" id="Fill-4" fill="url(#linearGradient-5)"></path>
                <path d="M242.258341,81.3658102 L242.258341,76.8961092 L253.154603,76.8961092 L254.314494,81.3658102 L242.258341,81.3658102 Z M239.560073,60.177173 L239.689517,60.177173 L251.770465,71.5634665 L252.503737,74.3880454 L239.560073,74.3880454 L239.560073,60.177173 Z M240.653965,60.177173 L240.653965,59.6139068 L242.809298,61.4899716 L250.132543,65.2517236 L251.008022,68.6254784 L242.809298,61.4899716 L240.253965,60.177173 L240.653965,60.177173 Z M232.159161,74.3880454 L190.583227,74.3880454 L190.583227,60.177173 L191.677119,60.177173 L191.677119,58.3148549 L231.065269,58.3148549 L231.065269,60.177173 L232.159161,60.177173 L232.159161,74.3880454 Z M193.281495,81.3658102 L229.387967,81.3658102 L229.387967,76.8961092 L193.281495,76.8961092 L193.281495,81.3658102 Z M191.677119,55.8920199 L231.065269,55.8920199 L231.065269,55.0228923 L191.677119,55.0228923 L191.677119,55.8920199 Z M183.182315,74.3880454 L167.813127,74.3880454 L183.179763,60.177173 L183.182315,60.177173 L183.182315,74.3880454 Z M158.220419,81.3658102 L180.411121,81.3658102 L180.411121,76.8961092 L158.220419,76.8961092 L158.220419,81.3658102 Z M178.458888,62.6120363 L182.088423,58.6437418 L182.088423,59.9043034 L178.458888,62.6120363 L167.688058,74.3880454 L162.672926,74.3880454 L178.458888,62.6120363 Z M391.154968,81.3658102 L391.154968,78.2453362 L389.616955,78.2453362 C389.616955,65.2407263 377.643209,54.7575832 362.873108,54.7575832 C348.101914,54.7575832 336.128897,65.2407263 336.128897,78.2453362 L334.591249,78.2453362 L334.591249,81.3658102 L330.192343,81.3658102 L330.192343,75.0279488 L330.921604,75.0279488 L330.921604,73.748142 L319.522881,73.748142 L312.25907,70.4551484 L312.25907,63.9509533 L315.057976,63.9509533 L315.057976,62.1783316 L311.867092,62.1783316 L311.867092,70.4551484 L304.603282,73.748142 L293.204923,73.748142 L293.204923,75.0279488 L293.934184,75.0279488 L293.934184,81.3658102 L278.033728,81.3658102 C278.121969,76.9665604 277.391978,67.7498211 270.19526,63.9509533 C260.578122,58.8739971 249.027712,60.9954383 249.027712,60.9954383 L249.968095,64.6180062 L240.653965,58.6227783 L240.653965,51.6068667 L239.560073,51.6068667 L239.560073,45.1019843 L239.013127,45.1019843 L239.013127,49.9101949 L237.189973,49.9101949 L237.189973,46.4735495 L236.278396,46.4735495 L236.278396,41.3185814 L235.440839,41.3185814 L235.440839,46.4735495 L234.529262,46.4735495 L234.529262,49.9101949 L232.706472,49.9101949 L232.706472,45.1019843 L232.159161,45.1019843 L232.159161,51.6068667 L231.065269,51.6068667 L231.065269,54.3400308 L191.677119,54.3400308 L191.677119,51.6068667 L190.583227,51.6068667 L190.583227,45.1019843 L190.036281,45.1019843 L190.036281,49.9101949 L188.213127,49.9101949 L188.213127,46.4735495 L187.30155,46.4735495 L187.30155,41.3185814 L186.463993,41.3185814 L186.463993,46.4735495 L185.552416,46.4735495 L185.552416,49.9101949 L183.729626,49.9101949 L183.729626,45.1019843 L183.182315,45.1019843 L183.182315,51.6068667 L182.088423,51.6068667 L182.088423,58.5121183 L158.220419,74.1694747 L158.220419,54.6816334 L158.58505,54.6816334 L158.58505,47.0543426 L157.855789,47.0543426 L157.855789,46.023349 L157.126527,46.023349 L157.126527,44.9923553 L156.397265,44.9923553 L156.397265,43.9613617 L155.668004,43.9613617 L155.668004,42.9303681 L154.938742,42.9303681 L154.938742,38.1190645 L154.564995,38.1190645 L154.564995,42.9303681 L153.835734,42.9303681 L153.835734,43.9613617 L153.106472,43.9613617 L153.106472,44.9923553 L152.377211,44.9923553 L152.377211,46.023349 L151.647949,46.023349 L151.647949,47.0543426 L150.918687,47.0543426 L150.918687,54.6816334 L151.283318,54.6816334 L151.283318,67.5374365 L147.217685,67.5374365 L147.217685,59.5183681 L146.020237,59.5183681 L146.020237,62.4969087 L142.216044,62.4969087 L142.216044,59.5183681 L141.018961,59.5183681 L141.018961,67.5374365 L134.941659,67.5374365 L134.941659,59.5183681 L133.744576,59.5183681 L133.744576,62.4969087 L129.940018,62.4969087 L129.940018,59.5183681 L128.742935,59.5183681 L128.742935,69.1887446 L127.310301,69.1887446 L127.310301,68.2629123 L126.327985,68.2629123 L126.327985,69.1887446 L124.895351,69.1887446 L124.895351,68.2629123 L123.913036,68.2629123 L123.913036,69.1887446 L122.480401,69.1887446 L122.480401,68.2629123 L121.497721,68.2629123 L121.497721,69.1887446 L120.065451,69.1887446 L120.065451,68.2629123 L119.082771,68.2629123 L119.082771,69.1887446 L117.650501,69.1887446 L117.650501,68.2629123 L116.667821,68.2629123 L116.667821,69.1887446 L115.235187,69.1887446 L115.235187,68.2629123 L114.252871,68.2629123 L114.252871,69.1887446 L112.820237,69.1887446 L112.820237,68.2629123 L111.837922,68.2629123 L111.837922,69.1887446 L110.405287,69.1887446 L110.405287,68.2629123 L109.422972,68.2629123 L109.422972,69.1887446 L107.990337,69.1887446 L107.990337,68.2629123 L107.007657,68.2629123 L107.007657,69.1887446 L105.575387,69.1887446 L105.575387,68.2629123 L104.592707,68.2629123 L104.592707,69.1887446 L103.160073,69.1887446 L103.160073,68.2629123 L102.177758,68.2629123 L102.177758,69.1887446 L100.745123,69.1887446 L100.745123,68.2629123 L99.7628077,68.2629123 L99.7628077,69.1887446 L98.3301732,69.1887446 L98.3301732,68.2629123 L97.3478578,68.2629123 L97.3478578,69.1887446 L95.9152233,69.1887446 L95.9152233,59.5183681 L94.7181404,59.5183681 L94.7181404,62.4969087 L90.9135825,62.4969087 L90.9135825,59.5183681 L89.7164995,59.5183681 L89.7164995,67.5374365 L87.4696445,67.5374365 L87.4696445,59.2424055 L86.7403829,59.2424055 L86.7403829,55.4620955 L86.0111212,55.4620955 L86.0111212,52.0254501 L85.3369189,52.0254501 L85.3369189,47.948214 L84.7349134,47.948214 L84.7349134,52.0254501 L84.060711,52.0254501 L84.060711,55.4620955 L83.3314494,55.4620955 L83.3314494,59.2424055 L82.6021878,59.2424055 L82.6021878,67.5374365 L74.6240656,67.5374365 L74.6240656,66.8030253 L73.894804,66.8030253 L73.894804,65.7720317 L73.1655424,65.7720317 L73.1655424,63.3663799 L72.49134,63.3663799 L72.49134,60.3201375 L71.8893345,60.3201375 L71.8893345,63.3663799 L71.2151322,63.3663799 L71.2151322,65.7720317 L70.4858706,65.7720317 L70.4858706,66.8030253 L69.7566089,66.8030253 L69.7566089,67.5374365 L68.5066545,67.5374365 L68.5066545,66.8030253 L67.7773929,66.8030253 L67.7773929,65.7720317 L67.0481313,65.7720317 L67.0481313,63.3663799 L66.3742935,63.3663799 L66.3742935,60.3201375 L65.7719234,60.3201375 L65.7719234,63.3663799 L65.0980857,63.3663799 L65.0980857,65.7720317 L64.3688241,65.7720317 L64.3688241,66.8030253 L63.6395624,66.8030253 L63.6395624,67.5374365 L60.9839562,67.5374365 L60.9839562,59.5183681 L59.7868733,59.5183681 L59.7868733,62.4969087 L55.9823154,62.4969087 L55.9823154,59.5183681 L54.7852325,59.5183681 L54.7852325,67.5374365 L54.7848678,67.5374365 L54.7848678,69.1887446 L53.2556062,69.1887446 L53.2556062,68.2629123 L52.2732908,68.2629123 L52.2732908,69.1887446 L50.7436645,69.1887446 L50.7436645,68.2629123 L49.7613491,68.2629123 L49.7613491,69.1887446 L48.2317229,69.1887446 L48.2317229,68.2629123 L47.2494075,68.2629123 L47.2494075,69.1887446 L45.7197812,69.1887446 L45.7197812,68.2629123 L44.7371012,68.2629123 L44.7371012,69.1887446 L43.2078396,69.1887446 L43.2078396,68.2629123 L42.2251595,68.2629123 L42.2251595,69.1887446 L40.6955333,69.1887446 L40.6955333,68.2629123 L39.7132179,68.2629123 L39.7132179,69.1887446 L38.1835916,69.1887446 L38.1835916,68.2629123 L37.2012762,68.2629123 L37.2012762,69.1887446 L35.67165,69.1887446 L35.67165,68.2629123 L34.6893345,68.2629123 L34.6893345,69.1887446 L33.1597083,69.1887446 L33.1597083,47.0320044 L32.4304467,47.0320044 L32.4304467,43.595359 L31.7011851,43.595359 L31.7011851,47.0320044 L30.9719234,47.0320044 L30.9719234,49.895761 L29.7668186,49.895761 L29.7668186,45.6525349 L28.6729262,45.6525349 L28.6729262,33.624276 L27.8014585,33.624276 L27.8014585,45.6525349 L26.7075661,45.6525349 L26.7075661,49.895761 L25.5024613,49.895761 L25.5024613,47.0320044 L24.7731996,47.0320044 L24.7731996,43.595359 L24.043938,43.595359 L24.043938,47.0320044 L23.3146764,47.0320044 L23.3146764,67.5374365 L22.0989973,67.5374365 L22.0989973,59.5183681 L20.9019143,59.5183681 L20.9019143,62.4969087 L17.0977211,62.4969087 L17.0977211,59.5183681 L15.9002735,59.5183681 L15.9002735,67.5374365 L9.82333637,67.5374365 L9.82333637,59.5183681 L8.62625342,59.5183681 L8.62625342,62.4969087 L4.82169553,62.4969087 L4.82169553,59.5183681 L3.62461258,59.5183681 L3.62461258,81.3658102 L-0.000182315406,81.3658102 L-0.000182315406,89.0247181 L399.735096,89.0247181 L399.735096,81.3658102 L391.154968,81.3658102 Z" id="Fill-5" fill="url(#linearGradient-4)"></path>
            </g>
        </g>
    </g>
</svg>