<?xml version="1.0" encoding="UTF-8"?>
<svg width="22px" height="17px" viewBox="0 0 22 17" version="1.1" xmlns="http://www.w3.org/2000/svg" xmlns:xlink="http://www.w3.org/1999/xlink">
    <!-- Generator: Sketch 46.2 (44496) - http://www.bohemiancoding.com/sketch -->
    <title>home_hd_icons_02</title>
    <desc>Created with Sketch.</desc>
    <defs>
        <polygon id="path-1" points="0 0 0 17 22 17 22 0"></polygon>
    </defs>
    <g id="Page-1" stroke="none" stroke-width="1" fill="none" fill-rule="evenodd">
        <g id="首页" transform="translate(-1016.000000, -1492.000000)">
            <g id="Group-31" transform="translate(135.000000, 1280.000000)">
                <g id="home_hd_icons_02" transform="translate(881.000000, 212.000000)">
                    <mask id="mask-2" fill="white">
                        <use xlink:href="#path-1"></use>
                    </mask>
                    <g id="Clip-2"></g>
                    <path d="M21,16.4908889 C21,16.2181334 20.7417943,16 20.4161174,16 L1.62884512,16 C1.29192758,16 1,16.2272556 1,16.5000111 C1,16.7727666 1.28068694,17 1.62884512,17 L20.4048768,17 C20.7417943,16.9726778 21,16.7545444 21,16.4908889 Z" id="Fill-1" fill="#BFBFBF" mask="url(#mask-2)"></path>
                    <path d="M1.75485081,3.63854415 C1.65591675,3.63854415 1.58998755,3.65944142 1.56798431,3.68031325 L0.512875553,4.097317 C0.117192997,4.34757524 -0.0366686446,4.47265346 0.00725732465,4.74368171 C0.0182589419,4.83755401 0.380909812,7.13124007 0.699661547,7.74629705 L0.710663164,7.75673297 C0.743694849,7.79840025 0.809624053,7.91314437 0.897556491,8.06953032 C2.57914027,10.7906815 3.60132467,12 4.23882814,12 L18.7027616,12 C19.1643734,12 19.9886629,11.7810749 20.7030972,11.3015321 C21.2966747,10.9053238 22,10.2068304 22,9.10169287 C22,7.33975467 19.9996645,6.20328392 18.6258308,6.20328392 L13.9107255,6.20328392 L13.8887223,6.172078 C12.2950709,4.33713933 9.26154941,0.823673398 9.11868938,0.594286975 C8.99783259,0.406567837 8.85497257,0.250258246 8.70111093,0.135514128 C8.54722245,0 8.44828839,0 8.2833983,0 L8.18446425,0 L6.83263382,0.479542856 C6.28306279,0.63595426 5.94230782,0.83410931 5.94230782,1.36572991 L5.94230782,1.3970631 L7.90971898,6.22415574 L4.74436587,6.22415574 L2.51321106,4.08688108 C2.26038853,3.78451964 2.007566,3.63854415 1.75485081,3.63854415 Z M18.6698373,10.9157597 L4.29375573,10.9157597 L4.27172566,10.9053238 C3.975004,10.6968092 3.21664374,9.5603639 2.50220945,8.45532815 C2.24938692,8.06953032 1.96366687,7.63165475 1.67791998,7.21457464 L1.66691837,7.20421509 C1.55695586,6.93308502 1.37016987,6.09907752 1.16127331,4.98350405 L1.16127331,4.93140085 L1.66691837,4.72280989 L3.95297393,6.90185365 C4.16189732,7.13124007 4.42561414,7.24588238 4.71133419,7.24588238 L8.12953666,7.24588238 C8.45929001,7.24588238 8.74501006,7.09993234 8.95382612,6.84967409 C9.14069262,6.60995357 9.1956202,6.30759213 9.09679348,6.00523068 L7.18428307,1.52214131 L7.2612139,1.48047403 L8.12953666,1.12603484 L8.16254151,1.16767667 C8.90990015,2.11642829 13.0315085,6.84967409 13.0644328,6.89141774 C13.2842237,7.14157417 13.5480478,7.2667542 13.8557979,7.2667542 L18.504974,7.2667542 C19.032515,7.2667542 19.6259852,7.46483289 20.0765953,7.78806615 C20.5712388,8.14253079 20.8459572,8.61161228 20.8459572,9.09125695 C20.8459572,9.57079981 20.5382071,10.0400086 19.9777686,10.4257809 C19.4721235,10.7489124 18.9445826,10.9157597 18.6698373,10.9157597 Z" id="Fill-3" fill="#BFBFBF" mask="url(#mask-2)"></path>
                </g>
            </g>
        </g>
    </g>
</svg>