<?xml version="1.0" encoding="UTF-8"?>
<svg width="125px" height="19px" viewBox="0 0 125 19" version="1.1" xmlns="http://www.w3.org/2000/svg" xmlns:xlink="http://www.w3.org/1999/xlink">
    <!-- Generator: Sketch 46.2 (44496) - http://www.bohemiancoding.com/sketch -->
    <title>home_main_inner_zs_ts_l</title>
    <desc>Created with Sketch.</desc>
    <defs></defs>
    <g id="Page-1" stroke="none" stroke-width="1" fill="none" fill-rule="evenodd">
        <g id="首页" transform="translate(-491.000000, -2430.000000)">
            <g id="home_main_inner_zs_ts_l" transform="translate(491.000000, 2430.000000)">
                <path d="M103.75,12 C103.335786,12 103,11.1045695 103,10 C103,8.8954305 103.335786,8 103.75,8 C104.164214,8 104.5,8.8954305 104.5,10 C104.5,11.1045695 104.164214,12 103.75,12 Z M104.932118,12.5764265 C104.671445,12.2545221 105.156008,11.4300543 106.01442,10.7349262 C106.872832,10.0397981 107.780029,9.73724051 108.040702,10.0591449 C108.301375,10.3810493 107.816812,11.2055171 106.9584,11.9006452 C106.099989,12.5957733 105.192791,12.8983309 104.932118,12.5764265 Z M105.213508,13.8289212 C105.306685,13.4253239 106.254702,13.2995716 107.330961,13.5480457 C108.40722,13.7965198 109.204166,14.3251281 109.110988,14.7287254 C109.01781,15.1323227 108.069794,15.2580749 106.993534,15.0096008 C105.917275,14.7611267 105.12033,14.2325185 105.213508,13.8289212 Z M104.391851,14.8558029 C104.764143,14.6742237 105.458477,15.3318322 105.942689,16.3246127 C106.4269,17.3173932 106.517628,18.2693999 106.145335,18.4509791 C105.773043,18.6325584 105.078709,17.9749499 104.594498,16.9821694 C104.110286,15.9893889 104.019558,15.0373822 104.391851,14.8558029 Z M103.108149,14.8558029 C103.480442,15.0373822 103.389714,15.9893889 102.905502,16.9821694 C102.421291,17.9749499 101.726957,18.6325584 101.354665,18.4509791 C100.982372,18.2693999 101.0731,17.3173932 101.557311,16.3246127 C102.041523,15.3318322 102.735857,14.6742237 103.108149,14.8558029 Z M102.286492,13.8289212 C102.37967,14.2325185 101.582725,14.7611267 100.506466,15.0096008 C99.4302061,15.2580749 98.48219,15.1323227 98.3890122,14.7287254 C98.2958344,14.3251281 99.0927796,13.7965198 100.169039,13.5480457 C101.245298,13.2995716 102.193315,13.4253239 102.286492,13.8289212 Z M102.567882,12.5764265 C102.307209,12.8983309 101.400011,12.5957733 100.5416,11.9006452 C99.6831878,11.2055171 99.1986248,10.3810493 99.4592979,10.0591449 C99.7199709,9.73724051 100.627168,10.0397981 101.48558,10.7349262 C102.343992,11.4300543 102.828555,12.2545221 102.567882,12.5764265 Z" id="Oval-7" fill="#C9BFF7"></path>
                <circle id="Oval-10" fill="#FFE0DE" cx="79" cy="7" r="3"></circle>
                <path d="M120.75,3 L118.75,3 L118.75,3 C118.335786,3 118,3.33578644 118,3.75 C118,4.16421356 118.335786,4.5 118.75,4.5 L120.75,4.5 L120.75,6.5 C120.75,6.91421356 121.085786,7.25 121.5,7.25 C121.914214,7.25 122.25,6.91421356 122.25,6.5 L122.25,4.5 L124.25,4.5 C124.664214,4.5 125,4.16421356 125,3.75 C125,3.33578644 124.664214,3 124.25,3 L122.25,3 L122.25,1 C122.25,0.585786438 121.914214,0.25 121.5,0.25 L121.5,0.25 C121.085786,0.25 120.75,0.585786438 120.75,1 L120.75,3 Z" id="Combined-Shape" fill="#FFDDB8"></path>
                <path d="M0.5,10.5 L60.5,10.5" id="Line-2" stroke="#EEEEEE" stroke-linecap="square"></path>
            </g>
        </g>
    </g>
</svg>