<?xml version="1.0" encoding="UTF-8"?>
<svg width="39px" height="11px" viewBox="0 0 39 11" version="1.1" xmlns="http://www.w3.org/2000/svg" xmlns:xlink="http://www.w3.org/1999/xlink">
    <!-- Generator: Sketch 46.2 (44496) - http://www.bohemiancoding.com/sketch -->
    <title>home_main_inner_zs_xp_l</title>
    <desc>Created with Sketch.</desc>
    <defs>
        <linearGradient x1="6.15993176%" y1="57.7079948%" x2="94.0585515%" y2="57.7079952%" id="linearGradient-1">
            <stop stop-color="#C900FF" offset="0%"></stop>
            <stop stop-color="#A535F4" offset="16.0481917%"></stop>
            <stop stop-color="#8650E0" offset="27.2017388%"></stop>
            <stop stop-color="#6172D0" offset="40.5934863%"></stop>
            <stop stop-color="#4482C2" offset="55.0668793%"></stop>
            <stop stop-color="#00A9A5" offset="71.1990602%"></stop>
            <stop stop-color="#00B59E" offset="83.6799782%"></stop>
            <stop stop-color="#00D186" offset="100%"></stop>
        </linearGradient>
    </defs>
    <g id="Page-1" stroke="none" stroke-width="1" fill="none" fill-rule="evenodd" stroke-linecap="round" opacity="0.514379529" stroke-linejoin="round">
        <g id="首页" transform="translate(-569.000000, -1880.000000)" stroke="url(#linearGradient-1)" stroke-width="2">
            <path d="M570,1890 L574.242362,1881.71347 L574.242362,1881.71347 C574.494043,1881.22187 575.096595,1881.02737 575.588199,1881.27905 C575.809573,1881.39239 575.980771,1881.58414 576.068384,1881.8169 L578.227746,1887.55357 L578.227746,1887.55357 C578.422306,1888.07044 578.999043,1888.33174 579.515922,1888.13718 C579.749057,1888.04942 579.941045,1887.87781 580.054303,1887.65594 L583.102205,1881.68522 L583.102205,1881.68522 C583.353307,1881.19332 583.95563,1880.99812 584.44753,1881.24922 C584.66567,1881.36058 584.835359,1881.54811 584.924416,1881.77627 L587.317618,1887.90733 L587.317618,1887.90733 C587.51844,1888.42181 588.098306,1888.67608 588.612785,1888.47526 C588.843032,1888.38538 589.031837,1888.21342 589.142775,1887.99255 L592.26555,1881.77536 L592.26555,1881.77536 C592.513439,1881.28184 593.114476,1881.08271 593.608004,1881.3306 C593.836217,1881.44523 594.011927,1881.64282 594.0991,1881.88287 L596.248511,1887.80162 L596.248511,1887.80162 C596.437029,1888.32073 597.010678,1888.58873 597.529792,1888.40022 C597.771702,1888.31237 597.970427,1888.13463 598.084623,1887.90398 L601.227331,1881.55652 L601.227331,1881.55652 C601.472383,1881.06157 602.072267,1880.859 602.56721,1881.10405 C602.769424,1881.20417 602.931834,1881.36973 603.028045,1881.57384 L607,1890" id="home_main_inner_zs_xp_l"></path>
        </g>
    </g>
</svg>