<?xml version="1.0" encoding="UTF-8"?>
<svg width="18px" height="18px" viewBox="0 0 18 18" version="1.1" xmlns="http://www.w3.org/2000/svg" xmlns:xlink="http://www.w3.org/1999/xlink">
    <!-- Generator: Sketch 46.2 (44496) - http://www.bohemiancoding.com/sketch -->
    <title>home_hd_icons_00</title>
    <desc>Created with Sketch.</desc>
    <defs>
        <circle id="path-1" cx="9" cy="9" r="9"></circle>
        <rect id="path-3" x="0" y="0" width="27" height="18.6607143"></rect>
    </defs>
    <g id="Page-1" stroke="none" stroke-width="1" fill="none" fill-rule="evenodd">
        <g id="首页" transform="translate(-812.000000, -1493.000000)">
            <g id="Group-31" transform="translate(135.000000, 1280.000000)">
                <g id="home_hd_icons_00" transform="translate(677.000000, 213.000000)">
                    <mask id="mask-2" fill="white">
                        <use xlink:href="#path-1"></use>
                    </mask>
                    <use id="Mask" fill="#FFFFFF" xlink:href="#path-1"></use>
                    <g id="法国" mask="url(#mask-2)">
                        <g transform="translate(-5.400000, -0.900000)">
                            <polygon id="Fill-1" fill="#DE2910" points="0.00937815126 18.8620418 27.8312269 18.8620418 27.8312269 0.0411213389 0.00937815126 0.0411213389"></polygon>
                            <polygon id="Fill-2" fill="#002E66" points="0.00937815126 18.8620418 9.2812437 18.8620418 9.2812437 0.0411213389 0.00937815126 0.0411213389"></polygon>
                            <polygon id="Fill-3" fill="#FFFFFF" points="9.28436975 18.8620418 18.5593613 18.8620418 18.5593613 0.0411213389 9.28436975 0.0411213389"></polygon>
                            <polygon id="Fill-4" fill="#EE4135" points="18.5562353 18.8620418 27.8312269 18.8620418 27.8312269 0.0411213389 18.5562353 0.0411213389"></polygon>
                        </g>
                    </g>
                    <g id="英国" mask="url(#mask-2)">
                        <g transform="translate(-5.000000, -1.000000)">
                            <g>
                                <mask id="mask-4" fill="white">
                                    <use xlink:href="#path-3"></use>
                                </mask>
                                <use id="Mask" fill="#D8D8D8" xlink:href="#path-3"></use>
                                <g mask="url(#mask-4)">
                                    <g transform="translate(-0.004523, 0.474918)">
                                        <g>
                                            <polygon id="Fill-1" fill="#01237C" points="0.00909925954 18.3255184 27.0035692 18.3255184 27.0035692 0.00153983013 0.00909925954 0.00153983013"></polygon>
                                            <polyline id="Fill-2" fill="#FFFFFF" points="27.0035692 6.4133925 16.2057812 6.4133925 16.2057812 0.00153983013 10.8068872 0.00153983013 10.8068872 6.4133925 0.00909925954 6.4133925 0.00909925954 11.9105861 10.8068872 11.9105861 10.8068872 18.3255184 16.2057812 18.3255184 16.2057812 11.9105861 27.0035692 11.9105861 27.0035692 6.4133925"></polyline>
                                            <polyline id="Fill-3" fill="#FFFFFF" points="27.0035692 16.2190308 3.10891368 0.00153983013 0.00909925954 0.00153983013 0.00909925954 2.12342575 23.8825232 18.3255184 27.0035692 18.3255184 27.0035692 16.2190308"></polyline>
                                            <polyline id="Fill-4" fill="#FFFFFF" points="0.00909925954 16.2190308 23.9067879 0.00153983013 27.0035692 0.00153983013 27.0035692 2.12342575 3.13014528 18.3255184 0.00909925954 18.3255184 0.00909925954 16.2190308"></polyline>
                                            <polyline id="Fill-5" fill="#CF132B" points="27.0035692 7.55902612 15.0805061 7.55902612 15.0805061 0.00153983013 11.9321623 0.00153983013 11.9321623 7.55902612 0.00909925954 7.55902612 0.00909925954 10.7649525 11.9321623 10.7649525 11.9321623 18.3255184 15.0805061 18.3255184 15.0805061 10.7649525 27.0035692 10.7649525 27.0035692 7.55902612"></polyline>
                                            <path d="M27.0035692,18.2731642 L27.0035692,16.8226442 L19.7484263,11.9105861 L17.6131334,11.9105861 L27.0035692,18.2731642 Z M27.0035692,0.00153983013 L24.8713094,0.00153983013 L16.2057812,5.86521297 L16.2057812,6.4133925 L17.5373062,6.4133925 L27.0035692,0.00153983013 Z M9.40560128,11.9105861 L0.00909925954,18.2731642 L0.00909925954,18.3255184 L2.07159809,18.3255184 L10.8068872,12.409491 L10.8068872,11.9105861 L9.40560128,11.9105861 Z M0.00909925954,0.0107788109 L0.00909925954,1.45821913 L7.32490393,6.4133925 L9.46322992,6.4133925 L0.00909925954,0.0107788109 L0.00909925954,0.0107788109 Z" id="Fill-6" fill="#CF132B"></path>
                                        </g>
                                    </g>
                                </g>
                            </g>
                        </g>
                    </g>
                </g>
            </g>
        </g>
    </g>
</svg>