<?xml version="1.0" encoding="UTF-8"?>
<svg width="25px" height="25px" viewBox="0 0 25 25" version="1.1" xmlns="http://www.w3.org/2000/svg" xmlns:xlink="http://www.w3.org/1999/xlink">
    <!-- Generator: Sketch 46.2 (44496) - http://www.bohemiancoding.com/sketch -->
    <title>home_footer_icons_05</title>
    <desc>Created with Sketch.</desc>
    <defs></defs>
    <g id="Page-1" stroke="none" stroke-width="1" fill="none" fill-rule="evenodd">
        <g id="首页" transform="translate(-1071.000000, -3983.000000)">
            <g id="Group-13" transform="translate(0.000000, 3945.000000)">
                <g id="home_footer_icons_05" transform="translate(1069.000000, 36.000000)">
                    <rect id="Rectangle-25" fill-opacity="0" fill="#D8D8D8" x="0" y="0" width="28" height="28"></rect>
                    <g id="帮助中心" transform="translate(3.000000, 3.000000)">
                        <path d="M9.29856218,8.99776119 C9.35303423,8.70988806 9.46489759,8.43594527 9.62747523,8.19231965 C9.97033237,7.68470149 10.4991212,7.38753109 11.3520094,7.38753109 C13.3351771,7.38753109 14.1971647,8.58109453 13.4539038,10.0560945 C13.2467609,10.4660759 13.0347423,10.6989739 12.7991212,10.834204 C12.6276926,10.9330535 12.4980653,10.970056 12.073438,11.0561878 C11.7069783,11.1307836 11.5070715,11.1877799 11.2720404,11.3169776 C10.5318231,11.7251555 10.1574752,12.3740983 10.1574752,13.3990672 L10.1574752,14.6460199 C10.1575684,15.0981343 10.5236554,15.4646144 10.9752392,15.4646144 C11.4268231,15.4646144 11.79291,15.0981343 11.7929721,14.6460199 L11.7929721,13.3990672 C11.7929721,12.9642102 11.8480963,12.8683769 12.060115,12.7519279 C12.1037175,12.7276741 12.1897423,12.7034204 12.3981274,12.6609453 C12.9941522,12.5396766 13.2370715,12.4699005 13.6120094,12.254602 C14.1365746,11.9537935 14.5672578,11.4795087 14.9131274,10.7929726 C16.2372889,8.16868781 14.4921647,5.75 11.3520094,5.75 C9.94244417,5.75 8.91210256,6.32798507 8.27244417,7.27652363 C7.89325162,7.83874378 7.72424541,8.39427861 7.67517709,8.80307836 C7.63247523,9.09738806 7.75253734,9.39172886 7.98881063,9.57198383 C8.22505287,9.75223881 8.54036343,9.79004975 8.81244417,9.67074005 C9.08452492,9.55146144 9.27061187,9.29384328 9.29856218,8.99776119" id="Fill-1" fill="#AAAAAA"></path>
                        <path d="M10.0613975,17.6258706 C10.0613975,18.0390858 10.2815839,18.4208955 10.6389752,18.6275187 C10.9963665,18.8341107 11.4367081,18.8341107 11.7941304,18.6275187 C12.1515217,18.4208955 12.371677,18.0390858 12.371677,17.6258706 C12.371677,17.2126866 12.1515217,16.8308458 11.7941304,16.6242537 C11.4367081,16.4176617 10.9963665,16.4176617 10.6389752,16.6242537 C10.2815839,16.8308458 10.0613975,17.2126866 10.0613975,17.6258706" id="Fill-2" fill="#AAAAAA"></path>
                        <path d="M11.5003295,23 C5.14824106,23 1.42108547e-14,17.8517589 1.42108547e-14,11.4997034 C1.42108547e-14,5.14890011 5.14824106,1.59872116e-14 11.4996705,1.59872116e-14 C17.8510999,1.59872116e-14 23,5.14827401 23,11.4997034 C23,17.8511328 17.8510999,23 11.4996705,23 L11.5003295,23 L11.5003295,23 Z" id="Fill-3" stroke="#AAAAAA" stroke-width="2"></path>
                    </g>
                </g>
            </g>
        </g>
    </g>
</svg>