<?xml version="1.0" encoding="UTF-8"?>
<svg width="13px" height="14px" viewBox="0 0 13 14" version="1.1" xmlns="http://www.w3.org/2000/svg" xmlns:xlink="http://www.w3.org/1999/xlink">
    <!-- Generator: Sketch 46.2 (44496) - http://www.bohemiancoding.com/sketch -->
    <title>home_hd_icons_03</title>
    <desc>Created with Sketch.</desc>
    <defs></defs>
    <g id="Page-1" stroke="none" stroke-width="1" fill="none" fill-rule="evenodd">
        <g id="首页" transform="translate(-792.000000, -1631.000000)" fill="#FFFFFF">
            <g id="Group-31" transform="translate(135.000000, 1280.000000)">
                <path d="M660.6713,365 C659.679409,363.048797 660.201477,361.926863 660.984528,360.902453 C661.819825,359.731681 662.028603,358.609747 662.028603,358.609747 C662.028603,358.609747 662.707285,359.390255 662.446241,360.658531 C663.594766,359.439017 663.803545,357.487814 663.64693,356.756067 C666.257169,358.463425 667.405694,362.219547 665.891776,364.951239 C673.93129,360.658531 667.875517,354.268297 666.831421,353.585369 C667.196895,354.31704 667.24908,355.536553 666.518213,356.121977 C665.317524,351.829269 662.341811,351 662.341811,351 C662.707285,353.195106 661.088958,355.585391 659.522795,357.390234 C659.47061,356.512222 659.418365,355.926817 658.896358,355.048786 C658.791928,356.658563 657.486809,357.926839 657.121335,359.536597 C656.651512,361.731703 657.486809,363.292719 660.6713,365 Z" id="home_hd_icons_03"></path>
            </g>
        </g>
    </g>
</svg>