<?xml version="1.0" encoding="UTF-8"?>
<svg width="22px" height="19px" viewBox="0 0 22 19" version="1.1" xmlns="http://www.w3.org/2000/svg" xmlns:xlink="http://www.w3.org/1999/xlink">
    <!-- Generator: Sketch 46.2 (44496) - http://www.bohemiancoding.com/sketch -->
    <title>right_navigation_icons_06</title>
    <desc>Created with Sketch.</desc>
    <defs></defs>
    <g id="Page-1" stroke="none" stroke-width="1" fill="none" fill-rule="evenodd">
        <g id="首页" transform="translate(-1412.000000, -489.000000)" stroke="#FFFFFF" stroke-width="1.3">
            <g id="Group-30" transform="translate(1411.000000, 189.000000)">
                <g id="right_navigation_icons_06" transform="translate(2.000000, 301.000000)">
                    <path d="M7.31069171,10.3089963 C7.91082238,10.1166342 8.48009549,9.8553388 9.009193,9.53442817 C10.5635305,8.59168429 11.7711458,7.13445099 12.3957986,5.39896853 C12.7003706,4.55277125 12.866349,3.64042293 12.866349,2.68930829 C12.866349,-0.691080814 10.7697316,-3.58177868 7.80594319,-4.75333899" id="Oval-5" transform="translate(10.088520, 2.777829) rotate(-90.000000) translate(-10.088520, -2.777829) "></path>
                    <path d="M7.94666225,11.8614575 C6.37588863,13.1685633 5.31360179,15.0658477 5.10019997,17.2129127" id="Oval-5-Copy" transform="translate(6.523431, 14.537185) rotate(-90.000000) translate(-6.523431, -14.537185) "></path>
                    <circle id="Oval-6" cx="10" cy="16" r="1"></circle>
                    <path d="M2.7,6.3 L2.7,6.3 L2.7,6.3 C4.909139,6.3 6.7,8.090861 6.7,10.3 L6.7,11.7 L-1.3,11.7 L-1.3,10.3 L-1.3,10.3 C-1.3,8.090861 0.490861001,6.3 2.7,6.3 Z" id="Rectangle-6" stroke-linecap="round" stroke-linejoin="round" transform="translate(2.700000, 9.000000) rotate(-90.000000) translate(-2.700000, -9.000000) "></path>
                    <path d="M16.7,6.3 L16.7,6.3 L16.7,6.3 C18.909139,6.3 20.7,8.090861 20.7,10.3 L20.7,11.7 L12.7,11.7 L12.7,10.3 L12.7,10.3 C12.7,8.090861 14.490861,6.3 16.7,6.3 Z" id="Rectangle-6-Copy" stroke-linecap="round" stroke-linejoin="round" transform="translate(16.700000, 9.000000) scale(-1, 1) rotate(-90.000000) translate(-16.700000, -9.000000) "></path>
                </g>
            </g>
        </g>
    </g>
</svg>